<?xml version="1.0" standalone="no"?>
<!DOCTYPE svg PUBLIC "-//W3C//DTD SVG 1.1//EN" "http://www.w3.org/Graphics/SVG/1.1/DTD/svg11.dtd" >
<svg xmlns="http://www.w3.org/2000/svg" xmlns:xlink="http://www.w3.org/1999/xlink" version="1.1">
<metadata>
Created by FontForge 20201107 at Thu Feb  1 13:26:50 2024
 By 
Copyright 2023 The Kode Mono Project Authors (https://github.com/isaozler/kode-mono)
</metadata>
<defs>
<font id="KodeMono-Regular" horiz-adv-x="600" >
  <font-face 
    font-family="Kode Mono"
    font-weight="400"
    font-stretch="normal"
    units-per-em="1000"
    panose-1="2 11 5 9 7 5 2 8 5 3"
    ascent="800"
    descent="-200"
    x-height="531"
    cap-height="700"
    bbox="-1180 -500 731 1000"
    underline-thickness="50"
    underline-position="-125"
    unicode-range="U+000D-FFFFF"
  />
<missing-glyph 
d="M39 479l39 -61l111 114h210l71 -105l-212 -219v-111h82v92l221 231l-122 184h-280zM390 -57h104v92h-104v-92zM390 85h104v92h-104v-92zM104 -57h104v92h-104v-92zM104 85h104v92h-104v-92zM390 -199h104v92h-104v-92zM104 -199h104v92h-104v-92zM258 -199h82v92h-82v-92
z" />
    <glyph glyph-name=".notdef" 
d="M39 479l39 -61l111 114h210l71 -105l-212 -219v-111h82v92l221 231l-122 184h-280zM390 -57h104v92h-104v-92zM390 85h104v92h-104v-92zM104 -57h104v92h-104v-92zM104 85h104v92h-104v-92zM390 -199h104v92h-104v-92zM104 -199h104v92h-104v-92zM258 -199h82v92h-82v-92
z" />
    <glyph glyph-name=".null" horiz-adv-x="0" 
 />
    <glyph glyph-name="nonmarkingreturn" horiz-adv-x="333" 
 />
    <glyph glyph-name="CR" unicode="&#xd;" 
 />
    <glyph glyph-name="space" unicode=" " 
 />
    <glyph glyph-name="exclam" unicode="!" 
d="M352 74h-104v-92h104v92zM260 194h82v506h-82v-506z" />
    <glyph glyph-name="quotedbl" unicode="&#x22;" 
d="M169 433h81v267h-81v-267zM350 433h81v267h-81v-267z" />
    <glyph glyph-name="numbersign" unicode="#" 
d="M205 241l40 218h148l-39 -218h-149zM562 532h-82l31 168h-74l-29 -168h-150l31 168h-73l-30 -168h-94v-73h81l-41 -218h-94v-73h81l-31 -168h74l30 168h147l-30 -168h73l32 168h94v73h-81l41 218h94v73z" />
    <glyph glyph-name="dollar" unicode="$" 
d="M417 72h-257l-31 42l-50 -52l43 -62h138v-140h82v140h109l70 73v209l-71 106h-252l-39 58v147l30 31h213l41 -60l51 51l-53 82h-99v100h-82v-100h-101l-80 -84v-177l80 -120h252l30 -42v-181z" />
    <glyph glyph-name="percent" unicode="%" 
d="M86 700l-45 -47v-68l45 -46h68l48 46v68l-48 47h-68zM534 716l-534 -685l60 -48l540 685zM445 160l-46 -46v-68l46 -46h67l47 47v66l-47 47h-67z" />
    <glyph glyph-name="ampersand" unicode="&#x26;" 
d="M180 700l-81 -85v-62l98 -145l-179 -186v-128l64 -94h269l71 75l51 -75h87l-87 126l109 111v102h-141v-72h65l-74 -79l-141 211l165 171v50l-56 80h-220zM167 581l45 47h152l19 -30l-134 -137zM99 105v96l139 145l143 -211l-60 -63h-201z" />
    <glyph glyph-name="quotesingle" unicode="'" 
d="M260 433h81v267h-81v-267z" />
    <glyph glyph-name="parenleft" unicode="(" 
d="M400 795l-251 -260v-470l251 -260l51 51l-222 230v428l222 230z" />
    <glyph glyph-name="parenright" unicode=")" 
d="M202 795l-54 -51l223 -230v-428l-223 -230l54 -51l250 260v470z" />
    <glyph glyph-name="asterisk" unicode="*" 
d="M261 540v-137l-131 42l-26 -76l131 -42l-81 -112l65 -47l81 112l81 -112l65 47l-80 112l130 42l-25 76l-131 -42v137h-79z" />
    <glyph glyph-name="plus" unicode="+" 
d="M264 493v-157h-157v-72h157v-156h72v156h157v72h-157v157h-72z" />
    <glyph glyph-name="comma" unicode="," 
d="M230 133v-133h60v-104l-48 -50l41 -63l87 88v262h-140z" />
    <glyph glyph-name="hyphen" unicode="-" 
d="M471 264h-342v72h342v-72z" />
    <glyph glyph-name="period" unicode="." 
d="M230 0v140h140v-140h-140z" />
    <glyph glyph-name="slash" unicode="/" 
d="M424 777l68 -23l-317 -931l-67 23z" />
    <glyph glyph-name="zero" unicode="0" 
d="M160 700l-81 -83v-497l81 -120h282l79 83v498l-79 119h-282zM159 595l31 33h211l39 -58v-38l-281 -291v354zM159 130v7l281 292v-324l-30 -33h-212z" />
    <glyph glyph-name="one" unicode="1" 
d="M260 700l-168 -172l42 -63l126 130v-523h-181v-72h442v72h-180v628h-81z" />
    <glyph glyph-name="two" unicode="2" 
d="M160 700l-81 -83l40 -60l71 71h216l64 -96l-392 -406v-126h444v72h-364v33l364 375v105l-77 115h-285z" />
    <glyph glyph-name="three" unicode="3" 
d="M78 700v-72h356l-204 -210v-81h143l69 -98v-130l-36 -37h-328v-72h360l84 87v160l-110 163h-90l200 207v83h-444z" />
    <glyph glyph-name="four" unicode="4" 
d="M363 700l-314 -324l92 -135h269v-241h81v241h60v73h-60v386h-128zM141 367l269 278v-331h-233z" />
    <glyph glyph-name="five" unicode="5" 
d="M78 700v-217l49 -73h246l68 -98v-203l-36 -37h-327v-72h360l84 87v234l-111 162h-247l-6 10v135h343v72h-423z" />
    <glyph glyph-name="six" unicode="6" 
d="M159 700l-80 -83v-495l80 -122h247l115 118v228l-43 64h-247l-72 -73v259l31 32h250v72h-281zM159 130v105l102 102h179v-198l-64 -67h-176z" />
    <glyph glyph-name="seven" unicode="7" 
d="M79 700v-72h361v-37l-282 -288v-303h81v282l282 288v130h-442z" />
    <glyph glyph-name="eight" unicode="8" 
d="M229 700l-150 -156v-87l82 -120h11l-93 -94v-123l81 -120h247l114 120v110l-90 133l90 94v136l-71 107h-221zM159 467v58l101 103h150l30 -45v-107l-67 -66h-175zM159 130v92l110 115h92l79 -117v-81l-67 -67h-175z" />
    <glyph glyph-name="nine" unicode="9" 
d="M128 700l-49 -51v-154l106 -158h255v-169l-83 -96h-238v-72h271l131 147v393l-107 160h-286zM159 506v122h215l66 -99v-119h-217z" />
    <glyph glyph-name="colon" unicode=":" 
d="M230 508h140v-140h-140v140zM230 168h140v-140h-140v140z" />
    <glyph glyph-name="semicolon" unicode=";" 
d="M230 368v140h140v-140h-140zM230 110v-131h47v-59l-41 -42l49 -72l85 83v221h-140z" />
    <glyph glyph-name="less" unicode="&#x3c;" 
d="M419 641l50 -53l-256 -247l256 -249l-48 -53l-290 280v43z" />
    <glyph glyph-name="equal" unicode="=" 
d="M114 423h372v-72h-372v72zM114 248h372v-72h-372v72z" />
    <glyph glyph-name="greater" unicode="&#x3e;" 
d="M181 641l288 -279v-43l-290 -280l-48 53l256 249l-256 247z" />
    <glyph glyph-name="question" unicode="?" 
d="M159 700l-120 -124l39 -62l111 114h210l71 -104l-212 -219v-111h82v92l221 231l-122 183h-280zM248 -21h104v92h-104v-92z" />
    <glyph glyph-name="at" unicode="@" 
d="M193 652l-190 -186v-366l154 -204h299v72h-261l-111 142v335l141 135h166l125 -111v-291h-60v188l-81 73h-115l-106 -107v-113l81 -110h289l73 47v337l-168 159h-236zM230 235v76l53 56h87v-189h-101z" />
    <glyph glyph-name="A" unicode="A" 
d="M242 700l-162 -167v-533h80v320h280v-320h80v700h-278zM160 514l111 114h169v-236h-280v122z" />
    <glyph glyph-name="B" unicode="B" 
d="M89 700v-700h362l80 49v224l-93 137h-40l123 130v92l-47 68h-385zM169 628h272v-69l-144 -149h-128v218zM169 337h231l51 -72v-193h-282v265z" />
    <glyph glyph-name="C" unicode="C" 
d="M176 700h281l66 -100l-51 -54l-53 82h-213l-31 -33v-465l39 -58h211l60 60l40 -60l-68 -72h-282l-80 120v497z" />
    <glyph glyph-name="D" unicode="D" 
d="M89 700h308l135 -201v-416l-80 -83h-363v700zM169 628v-556h250l32 33v384l-93 139h-189z" />
    <glyph glyph-name="E" unicode="E" 
d="M159 700l-81 -83v-497l80 -120h363v72h-324l-39 58v207h232v73h-232v185l31 33h332v72h-362z" />
    <glyph glyph-name="F" unicode="F" 
d="M187 700l-98 -100v-600h80v337h232v73h-232v168l48 50h315v72h-345z" />
    <glyph glyph-name="G" unicode="G" 
d="M149 700l-80 -84v-501l77 -115h366v347l-41 62h-181v-72h141v-265h-247l-35 54v470l30 32h212l54 -80l51 52l-67 100h-280z" />
    <glyph glyph-name="H" unicode="H" 
d="M78 700h80v-337l79 47h123l81 -47v337h81v-700h-81v282l-38 55h-215l-30 -30v-307h-80v700z" />
    <glyph glyph-name="I" unicode="I" 
d="M79 700v-73h181v-554h-181v-73h442v73h-181v554h181v73h-442z" />
    <glyph glyph-name="J" unicode="J" 
d="M119 700v-73h282v-508l-112 -119h-90v-72h121l161 169v603h-362z" />
    <glyph glyph-name="K" unicode="K" 
d="M451 700l-342 -355v355h-80v-700h80v241l122 128l254 -369h86l-289 422l274 278h-105z" />
    <glyph glyph-name="L" unicode="L" 
d="M78 700v-576l83 -124h361v145h-81v-72h-242l-41 59v568h-80z" />
    <glyph glyph-name="M" unicode="M" 
d="M79 700v-700h80v544l96 -142v-2h87v91l99 104v-595h81v700h-81l-177 -183l-105 155v28h-80z" />
    <glyph glyph-name="N" unicode="N" 
d="M441 700v-303l-205 303h-157v-700h80v628h39l243 -361v-267h81v700h-81z" />
    <glyph glyph-name="O" unicode="O" 
d="M159 700h284l79 -120v-497l-79 -83h-284l-81 120v497zM158 130l39 -58h214l30 33v465l-38 58h-214l-31 -33v-465z" />
    <glyph glyph-name="P" unicode="P" 
d="M79 700v-700h80v337h282l80 81v162l-80 120h-362zM160 628h242l39 -59v-129l-31 -32h-169l-81 -47v267z" />
    <glyph glyph-name="Q" unicode="Q" 
d="M161 700l-82 -84v-497l81 -119h258l29 -41l59 41l-117 174l-60 -41l42 -61h-173l-39 58v466l30 31h213l38 -56v-467l81 83v393l-82 120h-278z" />
    <glyph glyph-name="R" unicode="R" 
d="M78 700v-700h80v386l79 -49h103l101 -147v-190h81v199l-99 143l99 101v100l-108 157h-336zM158 628h217l66 -96v-71l-51 -51h-232v218z" />
    <glyph glyph-name="S" unicode="S" 
d="M159 700h282l53 -82l-51 -50l-41 60h-213l-30 -32v-129l40 -58h251l71 -106v-230l-70 -73h-328l-44 62l50 53l31 -43h257l24 21v201l-30 43h-252l-80 119v161z" />
    <glyph glyph-name="T" unicode="T" 
d="M39 700h522v-72h-298l78 -48v-580h-81v570l-38 58h-183v72z" />
    <glyph glyph-name="U" unicode="U" 
d="M441 700v-595l-32 -33h-212l-39 58v570h-80v-580l81 -120h202l80 49v-49h81v700h-81z" />
    <glyph glyph-name="V" unicode="V" 
d="M441 700v-454l-169 -175l-113 170v459h-80v-470l155 -230h70l217 226v474h-80z" />
    <glyph glyph-name="W" unicode="W" 
d="M58 700v-580l80 -120h83l87 92l62 -92h90l81 83v617h-81v-598l-27 -30h-24l-69 101v237h-81v-267l-68 -71h-25l-28 47v581h-80z" />
    <glyph glyph-name="X" unicode="X" 
d="M441 700v-168l-117 -122h-108l-58 87v203h-80v-213l101 -148l-101 -102v-237h80v215l118 122h105l60 -85v-252h81v263l-101 147l101 102v188h-81z" />
    <glyph glyph-name="Y" unicode="Y" 
d="M440 700h81v-164l-182 -188v-348h-80v339l-181 269v92h80v-83l139 -207h2l141 147v143z" />
    <glyph glyph-name="Z" unicode="Z" 
d="M78 700v-72h363v-94l-87 -92l51 -32h-176v-73h22l-173 -179v-158h444v72h-364v67l163 168l-49 30h169v73h-18l99 102v188h-444z" />
    <glyph glyph-name="bracketleft" unicode="[" 
d="M160 783v-966h280v74h-200v818h200v74h-280z" />
    <glyph glyph-name="backslash" unicode="\" 
d="M176 777l316 -931l-67 -23l-317 931z" />
    <glyph glyph-name="bracketright" unicode="]" 
d="M159 783v-76h201v-814h-201v-76h282v966h-282z" />
    <glyph glyph-name="asciicircum" unicode="^" 
d="M298 727l168 -282l66 30l-204 365h-59l-200 -360l66 -32z" />
    <glyph glyph-name="underscore" unicode="_" 
d="M560 -122h-520v72h520v-72z" />
    <glyph glyph-name="grave" unicode="`" 
d="M385 649l33 46l-176 115l-50 -68z" />
    <glyph glyph-name="a" unicode="a" 
d="M153 553v-74h293v-152h-221l-156 -162v-40l84 -125h209l84 51v-51h84v460l-63 93h-314zM153 135v8l105 108h188v-175h-254z" />
    <glyph glyph-name="b" unicode="b" 
d="M80 748v-748h80v48l82 -48h200l82 84v326l-82 122h-202l-80 -49v265h-80zM160 426l32 33h212l39 -58v-296l-30 -32h-253v353z" />
    <glyph glyph-name="c" unicode="c" 
d="M160 531h281l71 -106l-51 -53l-59 87h-211l-31 -32v-297l39 -58h211l59 61l41 -61l-69 -72h-280l-81 120v328z" />
    <glyph glyph-name="d" unicode="d" 
d="M442 749h81v-749h-81v48l-80 -48h-199l-83 121v326l81 85h200l81 -48v265zM161 131l38 -58h214l29 30v299l-38 57h-212l-31 -32v-296z" />
    <glyph glyph-name="e" unicode="e" 
d="M158 531l-80 -83v-328l81 -120h280l70 72l-44 55l-56 -55h-212l-39 58v112h198l165 170l-83 119h-280zM158 427l32 32h211l26 -39l-101 -106h-168v113z" />
    <glyph glyph-name="f" unicode="f" 
d="M250 700l-91 -94v-196h-80v-72h80v-338h80v338h198v72h-198v173l44 45h154l33 -49l51 52l-49 69h-222z" />
    <glyph glyph-name="g" unicode="g" 
d="M224 59h197l19 -30v-80l-84 -85h-149l-40 60v80zM167 433l43 47h192l38 -55v-96l-81 -50h-192v154zM361 205l160 98v250h-81v-49l-80 49h-180l-94 -98v-201l44 -27l-52 -52l65 -97l-57 -57v-105l84 -125h216l135 141v106l-61 95h-269l-21 34l37 38h154z" />
    <glyph glyph-name="h" unicode="h" 
d="M79 749h80v-266l80 48h200l83 -118v-413h-81v403l-38 56h-211l-33 -31v-428h-80v749z" />
    <glyph glyph-name="i" unicode="i" 
d="M119 550v-73h103l38 -57v-348h-181v-72h442v72h-181v358l-80 120h-141zM250 681v100h100v-100h-100z" />
    <glyph glyph-name="j" unicode="j" 
d="M239 550h202v-492l-163 -168h-138v72h108l112 117v399h-121v72zM290 681v100h100v-100h-100z" />
    <glyph glyph-name="k" unicode="k" 
d="M79 748v-748h80v242l108 111l174 -255v-98h81v107l-203 300l151 155h-100l-211 -218v404h-80z" />
    <glyph glyph-name="l" unicode="l" 
d="M78 748v-72h150v-557l81 -119h211l1 72h-174l-38 57v571l-81 48h-150z" />
    <glyph glyph-name="m" unicode="m" 
d="M59 531v-531h80v426l31 33h53l38 -57v-125h81v149l30 33h51l38 -57v-402h81v412l-81 119h-39l-115 -69l-46 69h-42l-80 -48v48h-80z" />
    <glyph glyph-name="n" unicode="n" 
d="M79 531v-531h80v427l31 32h213l38 -56v-403h81v413l-81 118h-201l-81 -48v48h-80z" />
    <glyph glyph-name="o" unicode="o" 
d="M160 531h283l80 -120v-328l-80 -83h-282l-81 120v328zM159 130l40 -58h212l30 32v298l-38 57h-213l-31 -33v-296z" />
    <glyph glyph-name="p" unicode="p" 
d="M239 531l-80 -49v49h-80v-747h80v264l81 -48h201l80 83v328l-79 120h-203zM159 130v297l31 31h212l38 -57v-298l-30 -31h-211z" />
    <glyph glyph-name="q" unicode="q" 
d="M159 531l-80 -83v-328l80 -120h201l80 48v-264h81v746h-81v-48l-81 49h-200zM159 130v297l32 31h209l40 -56v-299l-31 -31h-210z" />
    <glyph glyph-name="r" unicode="r" 
d="M74 531v-72h62l39 -57v-330h-101v-72h322v72h-141v340l44 47h137l30 -45l60 41l-52 76h-206l-55 -57l-95 57h-44z" />
    <glyph glyph-name="s" unicode="s" 
d="M165 531h276l52 -77l-49 -52l-40 59h-204l-31 -27v-76l38 -54h236l68 -102v-127l-68 -75h-314l-40 62l49 51l27 -41h245l21 24v94l-29 41h-237l-76 115v111z" />
    <glyph glyph-name="t" unicode="t" 
d="M179 748h80v-216h162v-73h-162v-329l39 -57h101l60 60l41 -60l-68 -73h-173l-80 118v341h-79v73h79v216z" />
    <glyph glyph-name="u" unicode="u" 
d="M440 531v-427l-29 -31h-213l-39 57v401h-80v-411l81 -120h200l82 49v-49h79v531h-81z" />
    <glyph glyph-name="v" unicode="v" 
d="M441 532v-286l-168 -175l-114 170v291h-80v-302l155 -230h70l218 226v306h-81z" />
    <glyph glyph-name="w" unicode="w" 
d="M502 531v-366l-90 -92h-3l-68 100v358h-81v-387l-68 -71h-5l-88 131v327h-80v-337l131 -194h71l89 91l60 -91h73l139 144v387h-80z" />
    <glyph glyph-name="x" unicode="x" 
d="M441 531v-96l-118 -121h-106l-59 86v131h-80v-141l99 -147v-2l-99 -102v-139h80v120l117 121h108l58 -86v-155h81v165l-100 147l100 102v117h-81z" />
    <glyph glyph-name="y" unicode="y" 
d="M440 532v-459h-222l-59 85v374h-80v-384l100 -148h261v-27l-114 -117h-247v-73h280l162 169v580h-81z" />
    <glyph glyph-name="z" unicode="z" 
d="M79 531v-72h361v-12l-361 -375v-72h442v72h-341l341 353v106h-442z" />
    <glyph glyph-name="braceleft" unicode="{" 
d="M328 783l-50 -53v-247l-177 -183l177 -183v-247l50 -53h171v74h-139v247l-159 162l159 162v247h139v74h-171z" />
    <glyph glyph-name="bar" unicode="|" 
d="M260 -160v920h80v-920h-80z" />
    <glyph glyph-name="braceright" unicode="}" 
d="M101 783v-74h142v-247l156 -162l-156 -162v-247h-142v-74h171l50 53v247l177 183l-177 183v247l-50 53h-171z" />
    <glyph glyph-name="asciitilde" unicode="~" 
d="M519 370l-130 -63l-180 66l-160 -77l31 -66l134 64l177 -67l160 77z" />
    <glyph glyph-name="uni00A0" unicode="&#xa0;" 
 />
    <glyph glyph-name="exclamdown" unicode="&#xa1;" 
d="M248 566h104v92h-104v-92zM340 446h-82v-506h82v506z" />
    <glyph glyph-name="cent" unicode="&#xa2;" 
d="M171 531l-81 -83v-328l81 -120h100v-145h80v145h100l70 72l-42 61l-58 -61h-212l-38 58v297l30 32h212l58 -87l52 53l-72 106h-100v149h-80v-149h-100z" />
    <glyph glyph-name="sterling" unicode="&#xa3;" 
d="M232 700l-82 -124v-188h-69v-72h69v-187l-39 -57h-50v-72h477v72h-340l34 51v193h191v72h-191v183l40 57h187v-73h80v145h-307z" />
    <glyph glyph-name="currency" unicode="&#xa4;" 
d="M460 550l-72 -72l-21 21h-134l-21 -21l-72 72l-51 -51l72 -72l-21 -21v-132l21 -23l-72 -70l51 -51l72 70l21 -21h134l21 21l72 -70l51 51l-72 70l21 23v132l-21 21l72 72zM337 431l53 -53v-76l-53 -53h-76l-51 53v76l51 53h76z" />
    <glyph glyph-name="yen" unicode="&#xa5;" 
d="M441 700h80v-164l-181 -188v-348h-80v339l-181 269v92h80v-83l139 -207h2l141 147v143zM481 337v-72h-372v72h372zM481 213v-72h-372v72h372z" />
    <glyph glyph-name="brokenbar" unicode="&#xa6;" 
d="M340 760h-80v-350h80v350zM340 190h-80v-350h80v350z" />
    <glyph glyph-name="section" unicode="&#xa7;" 
d="M180 772l-76 -72v-103l47 -70l-47 -46v-125l76 -115h206l30 -41v-104l-21 -24h-215l-27 41l-49 -51l40 -62h284l68 75v137l-41 60l41 45v136l-69 102h-205l-38 54v66l31 25h174l40 -56l49 51l-52 77h-246zM222 314l-38 54v91l28 24h174l30 -41v-105l-21 -23h-173z" />
    <glyph glyph-name="dieresis" unicode="&#xa8;" 
d="M140 630v110h110v-110h-110zM350 630v110h110v-110h-110z" />
    <glyph glyph-name="copyright" unicode="&#xa9;" 
d="M200 515h208l72 -106l-51 -54l-59 88h-138l-32 -32v-148l40 -58h137l60 62l41 -62l-69 -72h-208l-81 121v178zM181 603l-163 -163v-239l163 -161h234l167 161v239l-167 163h-234z" />
    <glyph glyph-name="ordfeminine" unicode="&#xaa;" 
d="M153 553v-74h293v-152h-221l-156 -162v-40l84 -125h209l84 51v-51h84v460l-63 93h-314zM153 135v8l105 108h188v-175h-254z" />
    <glyph glyph-name="guillemotleft" unicode="&#xab;" 
d="M501 91l-136 208l136 210l-36 22l-170 -207v-50l170 -205zM306 91l-136 208l136 210l-36 22l-170 -207v-50l170 -205z" />
    <glyph glyph-name="logicalnot" unicode="&#xac;" 
d="M496 366h-392v-73h312v-183h80v256z" />
    <glyph glyph-name="registered" unicode="&#xae;" 
d="M215 700l-115 -116v-170l115 -114h166l119 114v170l-119 116h-166zM234 629h120l51 -65v-33l-44 -54l41 -52v-48h-57v42l-43 55h-48v-97h-57v215zM254 577v-70h83l11 37v12l-22 21h-72z" />
    <glyph glyph-name="macron" unicode="&#xaf;" 
d="M431 728h-262v72h262v-72z" />
    <glyph glyph-name="degree" unicode="&#xb0;" 
d="M254 700l-61 -62v-90l61 -61h89l64 61v90l-64 62h-89zM277 648h45l33 -31v-47l-33 -31h-45l-32 31v47z" />
    <glyph glyph-name="plusminus" unicode="&#xb1;" 
d="M481 152h-362v-72h362v72zM264 577v-157h-157v-72h157v-156h72v156h157v72h-157v157h-72z" />
    <glyph glyph-name="uni00B2" unicode="&#xb2;" 
d="M228 720l-50 -50l32 -47l41 41h91l24 -37l-185 -190v-77h241v57h-181v2l181 187v50l-43 64h-151z" />
    <glyph glyph-name="uni00B3" unicode="&#xb3;" 
d="M179 720v-56h164l-88 -91v-44h77l29 -43v-57l-12 -12h-170v-57h195l47 50v87l-52 78h-34l86 89v56h-242z" />
    <glyph glyph-name="acute" unicode="&#xb4;" 
d="M215 649l193 93l-50 68l-176 -115z" />
    <glyph glyph-name="paragraph" unicode="&#xb6;" 
d="M143 767l-92 -94v-322l90 -134h109l55 32v-329h72v735h100v-735h72v847h-406z" />
    <glyph glyph-name="periodcentered" unicode="&#xb7;" 
d="M230 230v140h140v-140h-140z" />
    <glyph glyph-name="cedilla" unicode="&#xb8;" 
d="M250 -114h100l-100 114h85l75 -78v-31l-80 -67h-80v62z" />
    <glyph glyph-name="uni00B9" unicode="&#xb9;" 
d="M276 720l-93 -95l33 -48l54 56v-216h-91v-57h241v57h-89v303h-55z" />
    <glyph glyph-name="ordmasculine" unicode="&#xba;" 
d="M160 531h283l80 -120v-328l-80 -83h-282l-81 120v328zM159 130l40 -58h212l30 32v298l-38 57h-213l-31 -33v-296z" />
    <glyph glyph-name="guillemotright" unicode="&#xbb;" 
d="M100 91l36 -22l170 205v50l-170 207l-36 -22l136 -210zM295 91l36 -22l170 205v50l-170 207l-36 -22l136 -210z" />
    <glyph glyph-name="onequarter" unicode="&#xbc;" 
d="M46 168l537 257l-20 35l-538 -257zM156 780l-93 -95l33 -48l54 56v-216h-91v-57h241v57h-89v303h-55zM409 200l-166 -171l54 -78h130v-111h60v111h30v56h-30v193h-78zM315 23l112 115v-131h-102z" />
    <glyph glyph-name="onehalf" unicode="&#xbd;" 
d="M46 168l537 257l-20 35l-538 -257zM156 780l-93 -95l33 -48l54 56v-216h-91v-57h241v57h-89v303h-55zM308 200l-50 -50l32 -47l41 41h91l24 -37l-185 -190v-77h241v57h-181v2l181 187v50l-43 64h-151z" />
    <glyph glyph-name="threequarters" unicode="&#xbe;" 
d="M46 168l537 257l-20 35l-538 -257zM59 779v-56h164l-88 -91v-44h77l29 -43v-57l-12 -12h-170v-57h195l47 50v87l-52 78h-34l86 89v56h-242zM409 200l-166 -171l54 -78h130v-111h60v111h30v56h-30v193h-78zM315 23l112 115v-131h-102z" />
    <glyph glyph-name="questiondown" unicode="&#xbf;" 
d="M441 -21l120 124l-39 62l-111 -114h-210l-71 104l212 219v111h-82v-92l-221 -231l122 -183h280zM352 700h-104v-92h104v92z" />
    <glyph glyph-name="Agrave" unicode="&#xc0;" 
d="M242 700l-162 -167v-533h80v320h280v-320h80v700h-278zM160 514l111 114h169v-236h-280v122zM465 736l33 46l-176 115l-50 -68z" />
    <glyph glyph-name="Aacute" unicode="&#xc1;" 
d="M242 700l-162 -167v-533h80v320h280v-320h80v700h-278zM160 514l111 114h169v-236h-280v122zM295 735l193 93l-50 68l-176 -115z" />
    <glyph glyph-name="Acircumflex" unicode="&#xc2;" 
d="M242 700l-162 -167v-533h80v320h280v-320h80v700h-278zM160 514l111 114h169v-236h-280v122zM402 878h-44l-135 -102l43 -46l113 70l115 -70l42 46z" />
    <glyph glyph-name="Atilde" unicode="&#xc3;" 
d="M242 700l-162 -167v-533h80v320h280v-320h80v700h-278zM160 514l111 114h169v-236h-280v122zM547 855l-78 -47l-185 49l-103 -61l32 -55l82 50l181 -51l103 61z" />
    <glyph glyph-name="Adieresis" unicode="&#xc4;" 
d="M242 700l-162 -167v-533h80v320h280v-320h80v700h-278zM160 514l111 114h169v-236h-280v122zM220 739v110h110v-110h-110zM430 739v110h110v-110h-110z" />
    <glyph glyph-name="Aring" unicode="&#xc5;" 
d="M242 700l-162 -167v-533h80v320h280v-320h80v700h-278zM160 514l111 114h169v-236h-280v122zM334 953l-61 -62v-90l61 -61h89l64 61v90l-64 62h-89zM357 901h45l33 -31v-47l-33 -31h-45l-32 31v47z" />
    <glyph glyph-name="AE" unicode="&#xc6;" 
d="M161 700l-163 -168v-532h81v337h221v-337h302v72h-222v265h161v73h-161v218h222v72h-441zM79 512l111 116h110v-218h-221v102z" />
    <glyph glyph-name="Ccedilla" unicode="&#xc7;" 
d="M176 700h281l66 -100l-51 -54l-53 82h-213l-31 -33v-465l39 -58h211l60 60l40 -60l-68 -72h-282l-80 120v497zM250 -104h100l-100 114h85l75 -78v-31l-80 -67h-80v62z" />
    <glyph glyph-name="Egrave" unicode="&#xc8;" 
d="M159 700l-81 -83v-497l80 -120h363v72h-324l-39 58v207h232v73h-232v185l31 33h332v72h-362zM385 736l33 46l-176 115l-50 -68z" />
    <glyph glyph-name="Eacute" unicode="&#xc9;" 
d="M159 700l-81 -83v-497l80 -120h363v72h-324l-39 58v207h232v73h-232v185l31 33h332v72h-362zM215 735l193 93l-50 68l-176 -115z" />
    <glyph glyph-name="Ecircumflex" unicode="&#xca;" 
d="M159 700l-81 -83v-497l80 -120h363v72h-324l-39 58v207h232v73h-232v185l31 33h332v72h-362zM322 878h-44l-135 -102l43 -46l113 70l115 -70l42 46z" />
    <glyph glyph-name="Edieresis" unicode="&#xcb;" 
d="M159 700l-81 -83v-497l80 -120h363v72h-324l-39 58v207h232v73h-232v185l31 33h332v72h-362zM140 739v110h110v-110h-110zM350 739v110h110v-110h-110z" />
    <glyph glyph-name="Igrave" unicode="&#xcc;" 
d="M79 700v-73h181v-554h-181v-73h442v73h-181v554h181v73h-442zM385 760l33 46l-176 115l-50 -68z" />
    <glyph glyph-name="Iacute" unicode="&#xcd;" 
d="M79 700v-73h181v-554h-181v-73h442v73h-181v554h181v73h-442zM215 759l193 93l-50 68l-176 -115z" />
    <glyph glyph-name="Icircumflex" unicode="&#xce;" 
d="M79 700v-73h181v-554h-181v-73h442v73h-181v554h181v73h-442zM322 902h-44l-135 -102l43 -46l113 70l115 -70l42 46z" />
    <glyph glyph-name="Idieresis" unicode="&#xcf;" 
d="M79 700v-73h181v-554h-181v-73h442v73h-181v554h181v73h-442zM140 763v110h110v-110h-110zM350 763v110h110v-110h-110z" />
    <glyph glyph-name="Eth" unicode="&#xd0;" 
d="M89 700h308l135 -201v-416l-80 -83h-363v700zM169 628v-556h250l32 33v384l-93 139h-189zM259 304h-260v72h260v-72z" />
    <glyph glyph-name="Ntilde" unicode="&#xd1;" 
d="M441 700v-303l-205 303h-157v-700h80v628h39l243 -361v-267h81v700h-81zM467 855l-78 -47l-185 49l-103 -61l32 -55l82 50l181 -51l103 61z" />
    <glyph glyph-name="Ograve" unicode="&#xd2;" 
d="M159 700h284l79 -120v-497l-79 -83h-284l-81 120v497zM158 130l39 -58h214l30 33v465l-38 58h-214l-31 -33v-465zM385 736l33 46l-176 115l-50 -68z" />
    <glyph glyph-name="Oacute" unicode="&#xd3;" 
d="M159 700h284l79 -120v-497l-79 -83h-284l-81 120v497zM158 130l39 -58h214l30 33v465l-38 58h-214l-31 -33v-465zM215 735l193 93l-50 68l-176 -115z" />
    <glyph glyph-name="Ocircumflex" unicode="&#xd4;" 
d="M159 700h284l79 -120v-497l-79 -83h-284l-81 120v497zM158 130l39 -58h214l30 33v465l-38 58h-214l-31 -33v-465zM322 878h-44l-135 -102l43 -46l113 70l115 -70l42 46z" />
    <glyph glyph-name="Otilde" unicode="&#xd5;" 
d="M159 700h284l79 -120v-497l-79 -83h-284l-81 120v497zM158 130l39 -58h214l30 33v465l-38 58h-214l-31 -33v-465zM467 855l-78 -47l-185 49l-103 -61l32 -55l82 50l181 -51l103 61z" />
    <glyph glyph-name="Odieresis" unicode="&#xd6;" 
d="M159 700h284l79 -120v-497l-79 -83h-284l-81 120v497zM158 130l39 -58h214l30 33v465l-38 58h-214l-31 -33v-465zM140 739v110h110v-110h-110zM350 739v110h110v-110h-110z" />
    <glyph glyph-name="multiply" unicode="&#xd7;" 
d="M411 462l-111 -110l-111 110l-51 -51l111 -111l-111 -110l52 -51l110 110l111 -111l51 51l-111 111l111 110z" />
    <glyph glyph-name="Oslash" unicode="&#xd8;" 
d="M159 700h284l79 -120v-497l-79 -83h-284l-81 120v497zM158 130l39 -58h214l30 33v465l-38 58h-214l-31 -33v-465zM424 777l68 -23l-289 -849l-67 23z" />
    <glyph glyph-name="Ugrave" unicode="&#xd9;" 
d="M441 700v-595l-32 -33h-212l-39 58v570h-80v-580l81 -120h202l80 49v-49h81v700h-81zM385 736l33 46l-176 115l-50 -68z" />
    <glyph glyph-name="Uacute" unicode="&#xda;" 
d="M441 700v-595l-32 -33h-212l-39 58v570h-80v-580l81 -120h202l80 49v-49h81v700h-81zM215 735l193 93l-50 68l-176 -115z" />
    <glyph glyph-name="Ucircumflex" unicode="&#xdb;" 
d="M441 700v-595l-32 -33h-212l-39 58v570h-80v-580l81 -120h202l80 49v-49h81v700h-81zM322 878h-44l-135 -102l43 -46l113 70l115 -70l42 46z" />
    <glyph glyph-name="Udieresis" unicode="&#xdc;" 
d="M441 700v-595l-32 -33h-212l-39 58v570h-80v-580l81 -120h202l80 49v-49h81v700h-81zM140 739v110h110v-110h-110zM350 739v110h110v-110h-110z" />
    <glyph glyph-name="Yacute" unicode="&#xdd;" 
d="M440 700h81v-164l-182 -188v-348h-80v339l-181 269v92h80v-83l139 -207h2l141 147v143zM215 735l193 93l-50 68l-176 -115z" />
    <glyph glyph-name="Thorn" unicode="&#xde;" 
d="M79 745v-745h80v145l82 -47h199l81 84v326l-81 121h-201l-80 -48v164h-80zM159 524l32 32h211l39 -58v-296l-30 -32h-252v354z" />
    <glyph glyph-name="germandbls" unicode="&#xdf;" 
d="M239 700l-161 -166v-534h81v512l91 96l122 -77l-143 -113v-81h145l67 -98v-130l-35 -37h-121v-72h151l85 87v161l-109 162h-89l119 90v84z" />
    <glyph glyph-name="agrave" unicode="&#xe0;" 
d="M153 553v-74h293v-152h-221l-156 -162v-40l84 -125h209l84 51v-51h84v460l-63 93h-314zM153 135v8l105 108h188v-175h-254zM405 599l33 46l-176 115l-50 -68z" />
    <glyph glyph-name="aacute" unicode="&#xe1;" 
d="M153 553v-74h293v-152h-221l-156 -162v-40l84 -125h209l84 51v-51h84v460l-63 93h-314zM153 135v8l105 108h188v-175h-254zM235 598l193 93l-50 68l-176 -115z" />
    <glyph glyph-name="acircumflex" unicode="&#xe2;" 
d="M153 553v-74h293v-152h-221l-156 -162v-40l84 -125h209l84 51v-51h84v460l-63 93h-314zM153 135v8l105 108h188v-175h-254zM342 741h-44l-135 -102l43 -46l113 70l115 -70l42 46z" />
    <glyph glyph-name="atilde" unicode="&#xe3;" 
d="M153 553v-74h293v-152h-221l-156 -162v-40l84 -125h209l84 51v-51h84v460l-63 93h-314zM153 135v8l105 108h188v-175h-254zM487 718l-78 -47l-185 49l-103 -61l32 -55l82 50l181 -51l103 61z" />
    <glyph glyph-name="adieresis" unicode="&#xe4;" 
d="M153 553v-74h293v-152h-221l-156 -162v-40l84 -125h209l84 51v-51h84v460l-63 93h-314zM153 135v8l105 108h188v-175h-254zM160 602v110h110v-110h-110zM370 602v110h110v-110h-110z" />
    <glyph glyph-name="aring" unicode="&#xe5;" 
d="M153 553v-74h293v-152h-221l-156 -162v-40l84 -125h209l84 51v-51h84v460l-63 93h-314zM153 135v8l105 108h188v-175h-254zM274 816l-61 -62v-90l61 -61h89l64 61v90l-64 62h-89zM297 764h45l33 -31v-47l-33 -31h-45l-32 31v47z" />
    <glyph glyph-name="ae" unicode="&#xe6;" 
d="M79 531v-72h181v-145h-112l-150 -155v-39l81 -120h181l34 69l46 -69h181l70 72l-42 61l-58 -61h-112l-39 58v111h97l165 171l-81 119h-181l-35 -37l-25 37h-201zM340 427l31 32h111l27 -39l-102 -106h-67v113zM79 130v8l100 103h81v-121l-30 -48h-114z" />
    <glyph glyph-name="ccedilla" unicode="&#xe7;" 
d="M160 531h281l71 -106l-51 -53l-59 87h-211l-31 -32v-297l39 -58h211l59 61l41 -61l-69 -72h-280l-81 120v328zM250 -104h100l-100 114h85l75 -78v-31l-80 -67h-80v62z" />
    <glyph glyph-name="egrave" unicode="&#xe8;" 
d="M158 531l-80 -83v-328l81 -120h280l70 72l-44 55l-56 -55h-212l-39 58v112h198l165 170l-83 119h-280zM158 427l32 32h211l26 -39l-101 -106h-168v113zM383 595l33 46l-176 115l-50 -68z" />
    <glyph glyph-name="eacute" unicode="&#xe9;" 
d="M158 531l-80 -83v-328l81 -120h280l70 72l-44 55l-56 -55h-212l-39 58v112h198l165 170l-83 119h-280zM158 427l32 32h211l26 -39l-101 -106h-168v113zM213 594l193 93l-50 68l-176 -115z" />
    <glyph glyph-name="ecircumflex" unicode="&#xea;" 
d="M158 531l-80 -83v-328l81 -120h280l70 72l-44 55l-56 -55h-212l-39 58v112h198l165 170l-83 119h-280zM158 427l32 32h211l26 -39l-101 -106h-168v113zM320 737h-44l-135 -102l43 -46l113 70l115 -70l42 46z" />
    <glyph glyph-name="edieresis" unicode="&#xeb;" 
d="M158 531l-80 -83v-328l81 -120h280l70 72l-44 55l-56 -55h-212l-39 58v112h198l165 170l-83 119h-280zM158 427l32 32h211l26 -39l-101 -106h-168v113zM138 598v110h110v-110h-110zM348 598v110h110v-110h-110z" />
    <glyph glyph-name="igrave" unicode="&#xec;" 
d="M119 550v-73h103l38 -57v-348h-181v-72h442v72h-181v358l-80 120h-141zM385 676l33 46l-176 115l-50 -68z" />
    <glyph glyph-name="iacute" unicode="&#xed;" 
d="M119 550v-73h103l38 -57v-348h-181v-72h442v72h-181v358l-80 120h-141zM215 675l193 93l-50 68l-176 -115z" />
    <glyph glyph-name="icircumflex" unicode="&#xee;" 
d="M119 550v-73h103l38 -57v-348h-181v-72h442v72h-181v358l-80 120h-141zM322 818h-44l-135 -102l43 -46l113 70l115 -70l42 46z" />
    <glyph glyph-name="idieresis" unicode="&#xef;" 
d="M119 550v-73h103l38 -57v-348h-181v-72h442v72h-181v358l-80 120h-141zM140 679v110h110v-110h-110zM350 679v110h110v-110h-110z" />
    <glyph glyph-name="eth" unicode="&#xf0;" 
d="M168 737l-23 -66l114 -40l-74 -75l50 -49l85 86l93 -98l28 -101l-136 81l-168 -63l-71 -190l71 -189l169 -73l168 73l60 183v108l-57 207l-108 113l62 64l-50 49l-69 -70zM192 85l-50 137l50 136l106 40l165 -99v-71l-47 -143l-110 -49z" />
    <glyph glyph-name="ntilde" unicode="&#xf1;" 
d="M79 531v-531h80v427l31 32h213l38 -56v-403h81v413l-81 118h-201l-81 -48v48h-80zM508 714l-78 -47l-185 49l-103 -61l32 -55l82 50l181 -51l103 61z" />
    <glyph glyph-name="ograve" unicode="&#xf2;" 
d="M160 531h283l80 -120v-328l-80 -83h-282l-81 120v328zM159 130l40 -58h212l30 32v298l-38 57h-213l-31 -33v-296zM386 596l33 46l-176 115l-50 -68z" />
    <glyph glyph-name="oacute" unicode="&#xf3;" 
d="M160 531h283l80 -120v-328l-80 -83h-282l-81 120v328zM159 130l40 -58h212l30 32v298l-38 57h-213l-31 -33v-296zM216 595l193 93l-50 68l-176 -115z" />
    <glyph glyph-name="ocircumflex" unicode="&#xf4;" 
d="M160 531h283l80 -120v-328l-80 -83h-282l-81 120v328zM159 130l40 -58h212l30 32v298l-38 57h-213l-31 -33v-296zM323 738h-44l-135 -102l43 -46l113 70l115 -70l42 46z" />
    <glyph glyph-name="otilde" unicode="&#xf5;" 
d="M160 531h283l80 -120v-328l-80 -83h-282l-81 120v328zM159 130l40 -58h212l30 32v298l-38 57h-213l-31 -33v-296zM468 715l-78 -47l-185 49l-103 -61l32 -55l82 50l181 -51l103 61z" />
    <glyph glyph-name="odieresis" unicode="&#xf6;" 
d="M160 531h283l80 -120v-328l-80 -83h-282l-81 120v328zM159 130l40 -58h212l30 32v298l-38 57h-213l-31 -33v-296zM141 599v110h110v-110h-110zM351 599v110h110v-110h-110z" />
    <glyph glyph-name="divide" unicode="&#xf7;" 
d="M481 336h-362v-72h362v72zM281 507l-27 -27v-41l27 -27h39l28 27v41l-28 27h-39zM280 188l-26 -27v-41l26 -27h40l29 27v41l-29 27h-40z" />
    <glyph glyph-name="oslash" unicode="&#xf8;" 
d="M160 531h283l80 -120v-328l-80 -83h-282l-81 120v328zM159 130l40 -58h212l30 32v298l-38 57h-213l-31 -33v-296zM424 777l68 -23l-289 -849l-67 23z" />
    <glyph glyph-name="ugrave" unicode="&#xf9;" 
d="M440 531v-427l-29 -31h-213l-39 57v401h-80v-411l81 -120h200l82 49v-49h79v531h-81zM385 596l33 46l-176 115l-50 -68z" />
    <glyph glyph-name="uacute" unicode="&#xfa;" 
d="M440 531v-427l-29 -31h-213l-39 57v401h-80v-411l81 -120h200l82 49v-49h79v531h-81zM215 595l193 93l-50 68l-176 -115z" />
    <glyph glyph-name="ucircumflex" unicode="&#xfb;" 
d="M440 531v-427l-29 -31h-213l-39 57v401h-80v-411l81 -120h200l82 49v-49h79v531h-81zM322 738h-44l-135 -102l43 -46l113 70l115 -70l42 46z" />
    <glyph glyph-name="udieresis" unicode="&#xfc;" 
d="M440 531v-427l-29 -31h-213l-39 57v401h-80v-411l81 -120h200l82 49v-49h79v531h-81zM140 599v110h110v-110h-110zM350 599v110h110v-110h-110z" />
    <glyph glyph-name="yacute" unicode="&#xfd;" 
d="M440 532v-459h-222l-59 85v374h-80v-384l100 -148h261v-27l-114 -117h-247v-73h280l162 169v580h-81zM215 586l193 93l-50 68l-176 -115z" />
    <glyph glyph-name="thorn" unicode="&#xfe;" 
d="M79 748v-939h80v239l82 -48h199l81 85v325l-81 122h-201l-80 -49v265h-80zM159 427l32 32h211l39 -58v-296l-30 -32h-252v354z" />
    <glyph glyph-name="ydieresis" unicode="&#xff;" 
d="M440 532v-459h-222l-59 85v374h-80v-384l100 -148h261v-27l-114 -117h-247v-73h280l162 169v580h-81zM140 590v110h110v-110h-110zM350 590v110h110v-110h-110z" />
    <glyph glyph-name="Amacron" unicode="&#x100;" 
d="M242 700l-162 -167v-533h80v320h280v-320h80v700h-278zM160 514l111 114h169v-236h-280v122zM511 740h-262v72h262v-72z" />
    <glyph glyph-name="amacron" unicode="&#x101;" 
d="M153 553v-74h293v-152h-221l-156 -162v-40l84 -125h209l84 51v-51h84v460l-63 93h-314zM153 135v8l105 108h188v-175h-254zM451 603h-262v72h262v-72z" />
    <glyph glyph-name="Abreve" unicode="&#x102;" 
d="M242 700l-162 -167v-533h80v320h280v-320h80v700h-278zM160 514l111 114h169v-236h-280v122zM219 841v52h101v-93h120v93h101v-52l-100 -101h-121z" />
    <glyph glyph-name="abreve" unicode="&#x103;" 
d="M153 553v-74h293v-152h-221l-156 -162v-40l84 -125h209l84 51v-51h84v460l-63 93h-314zM153 135v8l105 108h188v-175h-254zM159 704v52h101v-93h120v93h101v-52l-100 -101h-121z" />
    <glyph glyph-name="Aogonek" unicode="&#x104;" 
d="M242 700l-162 -167v-533h80v320h280v-320h80v700h-278zM160 514l111 114h169v-236h-280v122zM520 -113h-100l100 114l-74 10l-86 -88v-31l80 -67h80v62z" />
    <glyph glyph-name="aogonek" unicode="&#x105;" 
d="M153 553v-74h293v-152h-221l-156 -162v-40l84 -125h209l84 51v-51h84v460l-63 93h-314zM153 135v8l105 108h188v-175h-254zM530 -114h-100l100 114l-74 10l-86 -88v-31l80 -67h80v62z" />
    <glyph glyph-name="Cacute" unicode="&#x106;" 
d="M176 700h281l66 -100l-51 -54l-53 82h-213l-31 -33v-465l39 -58h211l60 60l40 -60l-68 -72h-282l-80 120v497zM215 735l193 93l-50 68l-176 -115z" />
    <glyph glyph-name="cacute" unicode="&#x107;" 
d="M160 531h281l71 -106l-51 -53l-59 87h-211l-31 -32v-297l39 -58h211l59 61l41 -61l-69 -72h-280l-81 120v328zM215 607l193 93l-50 68l-176 -115z" />
    <glyph glyph-name="Cdotaccent" unicode="&#x10a;" 
d="M176 700h281l66 -100l-51 -54l-53 82h-213l-31 -33v-465l39 -58h211l60 60l40 -60l-68 -72h-282l-80 120v497zM250 741v100h100v-100h-100z" />
    <glyph glyph-name="cdotaccent" unicode="&#x10b;" 
d="M160 531h281l71 -106l-51 -53l-59 87h-211l-31 -32v-297l39 -58h211l59 61l41 -61l-69 -72h-280l-81 120v328zM250 613v100h100v-100h-100z" />
    <glyph glyph-name="Ccaron" unicode="&#x10c;" 
d="M176 700h281l66 -100l-51 -54l-53 82h-213l-31 -33v-465l39 -58h211l60 60l40 -60l-68 -72h-282l-80 120v497zM322 739l134 102l-42 46l-115 -70l-113 70l-43 -46l135 -102h44z" />
    <glyph glyph-name="ccaron" unicode="&#x10d;" 
d="M160 531h281l71 -106l-51 -53l-59 87h-211l-31 -32v-297l39 -58h211l59 61l41 -61l-69 -72h-280l-81 120v328zM322 611l134 102l-42 46l-115 -70l-113 70l-43 -46l135 -102h44z" />
    <glyph glyph-name="Dcaron" unicode="&#x10e;" 
d="M89 700h308l135 -201v-416l-80 -83h-363v700zM169 628v-556h250l32 33v384l-93 139h-189zM322 739l134 102l-42 46l-115 -70l-113 70l-43 -46l135 -102h44z" />
    <glyph glyph-name="dcaron" unicode="&#x10f;" 
d="M442 749h81v-749h-81v48l-80 -48h-199l-83 121v326l81 85h200l81 -48v265zM161 131l38 -58h214l29 30v299l-38 57h-212l-31 -32v-296zM622 810l109 -17l-78 -232l-68 16z" />
    <glyph glyph-name="Dcroat" unicode="&#x110;" 
d="M89 700h308l135 -201v-416l-80 -83h-363v700zM169 628v-556h250l32 33v384l-93 139h-189zM259 304h-260v72h260v-72z" />
    <glyph glyph-name="dcroat" unicode="&#x111;" 
d="M442 749h81v-749h-81v48l-80 -48h-199l-83 121v326l81 85h200l81 -48v265zM161 131l38 -58h214l29 30v299l-38 57h-212l-31 -32v-296zM602 608h-260v72h260v-72z" />
    <glyph glyph-name="Emacron" unicode="&#x112;" 
d="M159 700l-81 -83v-497l80 -120h363v72h-324l-39 58v207h232v73h-232v185l31 33h332v72h-362zM431 740h-262v72h262v-72z" />
    <glyph glyph-name="emacron" unicode="&#x113;" 
d="M158 531l-80 -83v-328l81 -120h280l70 72l-44 55l-56 -55h-212l-39 58v112h198l165 170l-83 119h-280zM158 427l32 32h211l26 -39l-101 -106h-168v113zM429 599h-262v72h262v-72z" />
    <glyph glyph-name="Edotaccent" unicode="&#x116;" 
d="M159 700l-81 -83v-497l80 -120h363v72h-324l-39 58v207h232v73h-232v185l31 33h332v72h-362zM250 741v100h100v-100h-100z" />
    <glyph glyph-name="edotaccent" unicode="&#x117;" 
d="M158 531l-80 -83v-328l81 -120h280l70 72l-44 55l-56 -55h-212l-39 58v112h198l165 170l-83 119h-280zM158 427l32 32h211l26 -39l-101 -106h-168v113zM248 600v100h100v-100h-100z" />
    <glyph glyph-name="Eogonek" unicode="&#x118;" 
d="M159 700l-81 -83v-497l80 -120h363v72h-324l-39 58v207h232v73h-232v185l31 33h332v72h-362zM340 -104h-100l100 114l-74 10l-86 -88v-31l80 -67h80v62z" />
    <glyph glyph-name="eogonek" unicode="&#x119;" 
d="M158 531l-80 -83v-328l81 -120h280l70 72l-44 55l-56 -55h-212l-39 58v112h198l165 170l-83 119h-280zM158 427l32 32h211l26 -39l-101 -106h-168v113zM338 -104h-100l100 114l-74 10l-86 -88v-31l80 -67h80v62z" />
    <glyph glyph-name="Ecaron" unicode="&#x11a;" 
d="M159 700l-81 -83v-497l80 -120h363v72h-324l-39 58v207h232v73h-232v185l31 33h332v72h-362zM322 739l134 102l-42 46l-115 -70l-113 70l-43 -46l135 -102h44z" />
    <glyph glyph-name="ecaron" unicode="&#x11b;" 
d="M158 531l-80 -83v-328l81 -120h280l70 72l-44 55l-56 -55h-212l-39 58v112h198l165 170l-83 119h-280zM158 427l32 32h211l26 -39l-101 -106h-168v113zM320 598l134 102l-42 46l-115 -70l-113 70l-43 -46l135 -102h44z" />
    <glyph glyph-name="Gbreve" unicode="&#x11e;" 
d="M149 700l-80 -84v-501l77 -115h366v347l-41 62h-181v-72h141v-265h-247l-35 54v470l30 32h212l54 -80l51 52l-67 100h-280zM139 841v52h101v-93h120v93h101v-52l-100 -101h-121z" />
    <glyph glyph-name="gbreve" unicode="&#x11f;" 
d="M224 59h197l19 -30v-80l-84 -85h-149l-40 60v80zM167 433l43 47h192l38 -55v-96l-81 -50h-192v154zM361 205l160 98v250h-81v-49l-80 49h-180l-94 -98v-201l44 -27l-52 -52l65 -97l-57 -57v-105l84 -125h216l135 141v106l-61 95h-269l-21 34l37 38h154zM119 687v52h101
v-93h120v93h101v-52l-100 -101h-121z" />
    <glyph glyph-name="Gdotaccent" unicode="&#x120;" 
d="M149 700l-80 -84v-501l77 -115h366v347l-41 62h-181v-72h141v-265h-247l-35 54v470l30 32h212l54 -80l51 52l-67 100h-280zM250 741v100h100v-100h-100z" />
    <glyph glyph-name="gdotaccent" unicode="&#x121;" 
d="M224 59h197l19 -30v-80l-84 -85h-149l-40 60v80zM167 433l43 47h192l38 -55v-96l-81 -50h-192v154zM361 205l160 98v250h-81v-49l-80 49h-180l-94 -98v-201l44 -27l-52 -52l65 -97l-57 -57v-105l84 -125h216l135 141v106l-61 95h-269l-21 34l37 38h154zM230 587v100h100
v-100h-100z" />
    <glyph glyph-name="uni0122" unicode="&#x122;" 
d="M149 700l-80 -84v-501l77 -115h366v347l-41 62h-181v-72h141v-265h-247l-35 54v470l30 32h212l54 -80l51 52l-67 100h-280zM256 -261l120 175l-74 40l-101 -184z" />
    <glyph glyph-name="uni0123" unicode="&#x123;" 
d="M224 59h197l19 -30v-80l-84 -85h-149l-40 60v80zM167 433l43 47h192l38 -55v-96l-81 -50h-192v154zM361 205l160 98v250h-81v-49l-80 49h-180l-94 -98v-201l44 -27l-52 -52l65 -97l-57 -57v-105l84 -125h216l135 141v106l-61 95h-269l-21 34l37 38h154zM330 616v103h-60
v54l48 50l-41 33l-57 -58v-182h110z" />
    <glyph glyph-name="Hbar" unicode="&#x126;" 
d="M78 700h80v-337l79 47h123l81 -47v337h81v-700h-81v282l-38 55h-215l-30 -30v-307h-80v700zM600 504h-600v72h600v-72z" />
    <glyph glyph-name="hbar" unicode="&#x127;" 
d="M79 749h80v-266l80 48h200l83 -118v-413h-81v403l-38 56h-211l-33 -31v-428h-80v749zM260 607h-260v72h260v-72z" />
    <glyph glyph-name="Imacron" unicode="&#x12a;" 
d="M79 700v-73h181v-554h-181v-73h442v73h-181v554h181v73h-442zM431 764h-262v72h262v-72z" />
    <glyph glyph-name="imacron" unicode="&#x12b;" 
d="M119 550v-73h103l38 -57v-348h-181v-72h442v72h-181v358l-80 120h-141zM431 680h-262v72h262v-72z" />
    <glyph glyph-name="Iogonek" unicode="&#x12e;" 
d="M79 700v-73h181v-554h-181v-73h442v73h-181v554h181v73h-442zM340 -104h-100l100 114l-74 10l-86 -88v-31l80 -67h80v62z" />
    <glyph glyph-name="iogonek" unicode="&#x12f;" 
d="M119 550v-73h103l38 -57v-348h-181v-72h442v72h-181v358l-80 120h-141zM250 681v100h100v-100h-100zM340 -104h-100l100 114l-74 10l-86 -88v-31l80 -67h80v62z" />
    <glyph glyph-name="Idotaccent" unicode="&#x130;" 
d="M79 700v-73h181v-554h-181v-73h442v73h-181v554h181v73h-442zM250 765v100h100v-100h-100z" />
    <glyph glyph-name="dotlessi" unicode="&#x131;" 
d="M119 550v-73h103l38 -57v-348h-181v-72h442v72h-181v358l-80 120h-141z" />
    <glyph glyph-name="IJ" unicode="&#x132;" 
d="M18 700v-71h143l38 -58v-571h81v582l45 47h158l-42 -56v-551l-112 -119h-130v-72h161l161 169v629h61v71h-287l-55 -56l-41 56h-181z" />
    <glyph glyph-name="ij" unicode="&#x133;" 
d="M78 602h101v98h-101v-98zM421 602h101v98h-101v-98zM430 481v-468l-261 58v410h-80v-458l341 -87v-14l-112 -117h-108v-72h138l163 168v580h-81z" />
    <glyph glyph-name="uni0136" unicode="&#x136;" 
d="M451 700l-342 -355v355h-80v-700h80v241l122 128l254 -369h86l-289 422l274 278h-105zM256 -261l120 175l-74 40l-101 -184z" />
    <glyph glyph-name="uni0137" unicode="&#x137;" 
d="M79 748v-748h80v242l108 111l174 -255v-98h81v107l-203 300l151 155h-100l-211 -218v404h-80zM257 -281l120 175l-74 40l-101 -184z" />
    <glyph glyph-name="Lacute" unicode="&#x139;" 
d="M78 700v-576l83 -124h361v145h-81v-72h-242l-41 59v568h-80zM34 745l193 93l-50 68l-176 -115z" />
    <glyph glyph-name="lacute" unicode="&#x13a;" 
d="M78 748v-72h150v-557l81 -119h211l1 72h-174l-38 57v571l-81 48h-150zM184 804l193 93l-50 68l-176 -115z" />
    <glyph glyph-name="uni013B" unicode="&#x13b;" 
d="M78 700v-576l83 -124h361v145h-81v-72h-242l-41 59v568h-80zM256 -261l120 175l-74 40l-101 -184z" />
    <glyph glyph-name="uni013C" unicode="&#x13c;" 
d="M78 748v-72h150v-557l81 -119h211l1 72h-174l-38 57v571l-81 48h-150zM327 -291l120 175l-74 40l-101 -184z" />
    <glyph glyph-name="Lcaron" unicode="&#x13d;" 
d="M78 700v-576l83 -124h361v145h-81v-72h-242l-41 59v568h-80zM353 734l109 -17l-78 -232l-68 16z" />
    <glyph glyph-name="lcaron" unicode="&#x13e;" 
d="M78 748v-72h150v-557l81 -119h211l1 72h-174l-38 57v571l-81 48h-150zM453 734l109 -17l-78 -232l-68 16z" />
    <glyph glyph-name="Lslash" unicode="&#x141;" 
d="M78 700v-576l83 -124h361v145h-81v-72h-242l-41 59v568h-80zM378 642l-244 -719l67 -23l245 719z" />
    <glyph glyph-name="lslash" unicode="&#x142;" 
d="M78 748v-72h150v-557l81 -119h211l1 72h-174l-38 57v571l-81 48h-150zM480 640l-432 -624l58 -41l433 624z" />
    <glyph glyph-name="Nacute" unicode="&#x143;" 
d="M441 700v-303l-205 303h-157v-700h80v628h39l243 -361v-267h81v700h-81zM215 735l193 93l-50 68l-176 -115z" />
    <glyph glyph-name="nacute" unicode="&#x144;" 
d="M79 531v-531h80v427l31 32h213l38 -56v-403h81v413l-81 118h-201l-81 -48v48h-80zM256 594l193 93l-50 68l-176 -115z" />
    <glyph glyph-name="uni0145" unicode="&#x145;" 
d="M441 700v-303l-205 303h-157v-700h80v628h39l243 -361v-267h81v700h-81zM256 -261l120 175l-74 40l-101 -184z" />
    <glyph glyph-name="uni0146" unicode="&#x146;" 
d="M79 531v-531h80v427l31 32h213l38 -56v-403h81v413l-81 118h-201l-81 -48v48h-80zM257 -281l120 175l-74 40l-101 -184z" />
    <glyph glyph-name="Ncaron" unicode="&#x147;" 
d="M441 700v-303l-205 303h-157v-700h80v628h39l243 -361v-267h81v700h-81zM322 739l134 102l-42 46l-115 -70l-113 70l-43 -46l135 -102h44z" />
    <glyph glyph-name="ncaron" unicode="&#x148;" 
d="M79 531v-531h80v427l31 32h213l38 -56v-403h81v413l-81 118h-201l-81 -48v48h-80zM363 598l134 102l-42 46l-115 -70l-113 70l-43 -46l135 -102h44z" />
    <glyph glyph-name="Ohungarumlaut" unicode="&#x150;" 
d="M159 700h284l79 -120v-497l-79 -83h-284l-81 120v497zM158 130l39 -58h214l30 33v465l-38 58h-214l-31 -33v-465zM243 731l129 170l-78 43l-104 -183zM385 731l146 156l-73 51l-123 -171z" />
    <glyph glyph-name="ohungarumlaut" unicode="&#x151;" 
d="M160 531h283l80 -120v-328l-80 -83h-282l-81 120v328zM159 130l40 -58h212l30 32v298l-38 57h-213l-31 -33v-296zM244 591l129 170l-78 43l-104 -183zM386 591l146 156l-73 51l-123 -171z" />
    <glyph glyph-name="OE" unicode="&#x152;" 
d="M79 595l30 33h153l38 -58v-465l-30 -33h-153l-38 58v465zM380 337h161v73h-161v170l-31 48h253v72h-523l-81 -83v-497l82 -120h522v72h-232l10 11v254z" />
    <glyph glyph-name="oe" unicode="&#x153;" 
d="M83 531l-80 -83v-328l81 -120h179l47 50l33 -50h173l70 72l-41 61l-59 -61h-104l-39 58v112h90l164 170l-81 119h-173l-48 -49l-32 49h-180zM84 130v296l30 33h110l39 -57v-298l-31 -32h-109zM343 427l31 32h103l27 -39l-102 -106h-59v113z" />
    <glyph glyph-name="Racute" unicode="&#x154;" 
d="M78 700v-700h80v386l79 -49h103l101 -147v-190h81v199l-99 143l99 101v100l-108 157h-336zM158 628h217l66 -96v-71l-51 -51h-232v218zM215 735l193 93l-50 68l-176 -115z" />
    <glyph glyph-name="racute" unicode="&#x155;" 
d="M74 531v-72h62l39 -57v-330h-101v-72h322v72h-141v340l44 47h137l30 -45l60 41l-52 76h-206l-55 -57l-95 57h-44zM284 594l193 93l-50 68l-176 -115z" />
    <glyph glyph-name="Rcaron" unicode="&#x158;" 
d="M78 700v-700h80v386l79 -49h103l101 -147v-190h81v199l-99 143l99 101v100l-108 157h-336zM158 628h217l66 -96v-71l-51 -51h-232v218zM322 739l134 102l-42 46l-115 -70l-113 70l-43 -46l135 -102h44z" />
    <glyph glyph-name="rcaron" unicode="&#x159;" 
d="M74 531v-72h62l39 -57v-330h-101v-72h322v72h-141v340l44 47h137l30 -45l60 41l-52 76h-206l-55 -57l-95 57h-44zM391 598l134 102l-42 46l-115 -70l-113 70l-43 -46l135 -102h44z" />
    <glyph glyph-name="Sacute" unicode="&#x15a;" 
d="M159 700h282l53 -82l-51 -50l-41 60h-213l-30 -32v-129l40 -58h251l71 -106v-230l-70 -73h-328l-44 62l50 53l31 -43h257l24 21v201l-30 43h-252l-80 119v161zM215 735l193 93l-50 68l-176 -115z" />
    <glyph glyph-name="sacute" unicode="&#x15b;" 
d="M165 531h276l52 -77l-49 -52l-40 59h-204l-31 -27v-76l38 -54h236l68 -102v-127l-68 -75h-314l-40 62l49 51l27 -41h245l21 24v94l-29 41h-237l-76 115v111zM218 594l193 93l-50 68l-176 -115z" />
    <glyph glyph-name="Scedilla" unicode="&#x15e;" 
d="M159 700h282l53 -82l-51 -50l-41 60h-213l-30 -32v-129l40 -58h251l71 -106v-230l-70 -73h-328l-44 62l50 53l31 -43h257l24 21v201l-30 43h-252l-80 119v161zM250 -104h100l-100 114h85l75 -78v-31l-80 -67h-80v62z" />
    <glyph glyph-name="scedilla" unicode="&#x15f;" 
d="M165 531h276l52 -77l-49 -52l-40 59h-204l-31 -27v-76l38 -54h236l68 -102v-127l-68 -75h-314l-40 62l49 51l27 -41h245l21 24v94l-29 41h-237l-76 115v111zM236 -114h100l-100 114h85l75 -78v-31l-80 -67h-80v62z" />
    <glyph glyph-name="Scaron" unicode="&#x160;" 
d="M159 700h282l53 -82l-51 -50l-41 60h-213l-30 -32v-129l40 -58h251l71 -106v-230l-70 -73h-328l-44 62l50 53l31 -43h257l24 21v201l-30 43h-252l-80 119v161zM322 739l134 102l-42 46l-115 -70l-113 70l-43 -46l135 -102h44z" />
    <glyph glyph-name="scaron" unicode="&#x161;" 
d="M165 531h276l52 -77l-49 -52l-40 59h-204l-31 -27v-76l38 -54h236l68 -102v-127l-68 -75h-314l-40 62l49 51l27 -41h245l21 24v94l-29 41h-237l-76 115v111zM325 598l134 102l-42 46l-115 -70l-113 70l-43 -46l135 -102h44z" />
    <glyph glyph-name="Tcaron" unicode="&#x164;" 
d="M39 700h522v-72h-298l78 -48v-580h-81v570l-38 58h-183v72zM322 739l134 102l-42 46l-115 -70l-113 70l-43 -46l135 -102h44z" />
    <glyph glyph-name="tcaron" unicode="&#x165;" 
d="M179 748h80v-216h162v-73h-162v-329l39 -57h101l60 60l41 -60l-68 -73h-173l-80 118v341h-79v73h79v216zM417 888l109 -17l-78 -232l-68 16z" />
    <glyph glyph-name="Umacron" unicode="&#x16a;" 
d="M441 700v-595l-32 -33h-212l-39 58v570h-80v-580l81 -120h202l80 49v-49h81v700h-81zM431 740h-262v72h262v-72z" />
    <glyph glyph-name="umacron" unicode="&#x16b;" 
d="M440 531v-427l-29 -31h-213l-39 57v401h-80v-411l81 -120h200l82 49v-49h79v531h-81zM431 600h-262v72h262v-72z" />
    <glyph glyph-name="Uring" unicode="&#x16e;" 
d="M441 700v-595l-32 -33h-212l-39 58v570h-80v-580l81 -120h202l80 49v-49h81v700h-81zM254 953l-61 -62v-90l61 -61h89l64 61v90l-64 62h-89zM277 901h45l33 -31v-47l-33 -31h-45l-32 31v47z" />
    <glyph glyph-name="uring" unicode="&#x16f;" 
d="M440 531v-427l-29 -31h-213l-39 57v401h-80v-411l81 -120h200l82 49v-49h79v531h-81zM254 813l-61 -62v-90l61 -61h89l64 61v90l-64 62h-89zM277 761h45l33 -31v-47l-33 -31h-45l-32 31v47z" />
    <glyph glyph-name="Uhungarumlaut" unicode="&#x170;" 
d="M441 700v-595l-32 -33h-212l-39 58v570h-80v-580l81 -120h202l80 49v-49h81v700h-81zM243 731l129 170l-78 43l-104 -183zM385 731l146 156l-73 51l-123 -171z" />
    <glyph glyph-name="uhungarumlaut" unicode="&#x171;" 
d="M440 531v-427l-29 -31h-213l-39 57v401h-80v-411l81 -120h200l82 49v-49h79v531h-81zM243 591l129 170l-78 43l-104 -183zM385 591l146 156l-73 51l-123 -171z" />
    <glyph glyph-name="Uogonek" unicode="&#x172;" 
d="M441 700v-595l-32 -33h-212l-39 58v570h-80v-580l81 -120h202l80 49v-49h81v700h-81zM522 -114h-100l100 114l-74 10l-86 -88v-31l80 -67h80v62z" />
    <glyph glyph-name="uogonek" unicode="&#x173;" 
d="M440 531v-427l-29 -31h-213l-39 57v401h-80v-411l81 -120h200l82 49v-49h79v531h-81zM521 -114h-100l100 114l-74 10l-86 -88v-31l80 -67h80v62z" />
    <glyph glyph-name="Wcircumflex" unicode="&#x174;" 
d="M58 700v-580l80 -120h83l87 92l62 -92h90l81 83v617h-81v-598l-27 -30h-24l-69 101v237h-81v-267l-68 -71h-25l-28 47v581h-80zM322 878h-44l-135 -102l43 -46l113 70l115 -70l42 46z" />
    <glyph glyph-name="wcircumflex" unicode="&#x175;" 
d="M502 531v-366l-90 -92h-3l-68 100v358h-81v-387l-68 -71h-5l-88 131v327h-80v-337l131 -194h71l89 91l60 -91h73l139 144v387h-80zM322 738h-44l-135 -102l43 -46l113 70l115 -70l42 46z" />
    <glyph glyph-name="Ycircumflex" unicode="&#x176;" 
d="M440 700h81v-164l-182 -188v-348h-80v339l-181 269v92h80v-83l139 -207h2l141 147v143zM322 878h-44l-135 -102l43 -46l113 70l115 -70l42 46z" />
    <glyph glyph-name="ycircumflex" unicode="&#x177;" 
d="M440 532v-459h-222l-59 85v374h-80v-384l100 -148h261v-27l-114 -117h-247v-73h280l162 169v580h-81zM322 729h-44l-135 -102l43 -46l113 70l115 -70l42 46z" />
    <glyph glyph-name="Ydieresis" unicode="&#x178;" 
d="M440 700h81v-164l-182 -188v-348h-80v339l-181 269v92h80v-83l139 -207h2l141 147v143zM140 739v110h110v-110h-110zM350 739v110h110v-110h-110z" />
    <glyph glyph-name="Zacute" unicode="&#x179;" 
d="M78 700v-72h363v-94l-87 -92l51 -32h-176v-73h22l-173 -179v-158h444v72h-364v67l163 168l-49 30h169v73h-18l99 102v188h-444zM215 735l193 93l-50 68l-176 -115z" />
    <glyph glyph-name="zacute" unicode="&#x17a;" 
d="M79 531v-72h361v-12l-361 -375v-72h442v72h-341l341 353v106h-442zM215 586l193 93l-50 68l-176 -115z" />
    <glyph glyph-name="Zdotaccent" unicode="&#x17b;" 
d="M78 700v-72h363v-94l-87 -92l51 -32h-176v-73h22l-173 -179v-158h444v72h-364v67l163 168l-49 30h169v73h-18l99 102v188h-444zM250 741v100h100v-100h-100z" />
    <glyph glyph-name="zdotaccent" unicode="&#x17c;" 
d="M79 531v-72h361v-12l-361 -375v-72h442v72h-341l341 353v106h-442zM250 592v100h100v-100h-100z" />
    <glyph glyph-name="Zcaron" unicode="&#x17d;" 
d="M78 700v-72h363v-94l-87 -92l51 -32h-176v-73h22l-173 -179v-158h444v72h-364v67l163 168l-49 30h169v73h-18l99 102v188h-444zM322 739l134 102l-42 46l-115 -70l-113 70l-43 -46l135 -102h44z" />
    <glyph glyph-name="zcaron" unicode="&#x17e;" 
d="M79 531v-72h361v-12l-361 -375v-72h442v72h-341l341 353v106h-442zM322 590l134 102l-42 46l-115 -70l-113 70l-43 -46l135 -102h44z" />
    <glyph glyph-name="uni0218" unicode="&#x218;" 
d="M159 700h282l53 -82l-51 -50l-41 60h-213l-30 -32v-129l40 -58h251l71 -106v-230l-70 -73h-328l-44 62l50 53l31 -43h257l24 21v201l-30 43h-252l-80 119v161zM256 -261l120 175l-74 40l-101 -184z" />
    <glyph glyph-name="uni0219" unicode="&#x219;" 
d="M165 531h276l52 -77l-49 -52l-40 59h-204l-31 -27v-76l38 -54h236l68 -102v-127l-68 -75h-314l-40 62l49 51l27 -41h245l21 24v94l-29 41h-237l-76 115v111zM257 -281l120 175l-74 40l-101 -184z" />
    <glyph glyph-name="uni021A" unicode="&#x21a;" 
d="M39 700h522v-72h-298l78 -48v-580h-81v570l-38 58h-183v72zM256 -261l120 175l-74 40l-101 -184z" />
    <glyph glyph-name="uni021B" unicode="&#x21b;" 
d="M179 748h80v-216h162v-73h-162v-329l39 -57h101l60 60l41 -60l-68 -73h-173l-80 118v341h-79v73h79v216zM301 -281l120 175l-74 40l-101 -184z" />
    <glyph glyph-name="uni0237" unicode="&#x237;" 
d="M239 550h202v-492l-163 -168h-138v72h108l112 117v399h-121v72z" />
    <glyph glyph-name="circumflex" unicode="&#x2c6;" 
d="M322 758h-44l-135 -102l43 -46l113 70l115 -70l42 46z" />
    <glyph glyph-name="caron" unicode="&#x2c7;" 
d="M322 668l134 102l-42 46l-115 -70l-113 70l-43 -46l135 -102h44z" />
    <glyph glyph-name="breve" unicode="&#x2d8;" 
d="M139 748v52h101v-93h120v93h101v-52l-100 -101h-121z" />
    <glyph glyph-name="dotaccent" unicode="&#x2d9;" 
d="M250 630v100h100v-100h-100z" />
    <glyph glyph-name="ring" unicode="&#x2da;" 
d="M254 800l-61 -62v-90l61 -61h89l64 61v90l-64 62h-89zM277 748h45l33 -31v-47l-33 -31h-45l-32 31v47z" />
    <glyph glyph-name="ogonek" unicode="&#x2db;" 
d="M380 -114h-100l100 114h-85l-75 -78v-31l80 -67h80v62z" />
    <glyph glyph-name="tilde" unicode="&#x2dc;" 
d="M467 798l-78 -47l-185 49l-103 -61l32 -55l82 50l181 -51l103 61z" />
    <glyph glyph-name="hungarumlaut" unicode="&#x2dd;" 
d="M188 587l129 170l-78 43l-104 -183zM330 587l146 156l-73 51l-123 -171z" />
    <glyph glyph-name="gravecomb" unicode="&#x300;" horiz-adv-x="0" 
d="M385 649l33 46l-176 115l-50 -68z" />
    <glyph glyph-name="acutecomb" unicode="&#x301;" horiz-adv-x="0" 
d="M215 649l193 93l-50 68l-176 -115z" />
    <glyph glyph-name="uni0302" unicode="&#x302;" horiz-adv-x="0" 
d="M322 758h-44l-135 -102l43 -46l113 70l115 -70l42 46z" />
    <glyph glyph-name="tildecomb" unicode="&#x303;" horiz-adv-x="0" 
d="M467 798l-78 -47l-185 49l-103 -61l32 -55l82 50l181 -51l103 61z" />
    <glyph glyph-name="uni0304" unicode="&#x304;" horiz-adv-x="0" 
d="M431 728h-262v72h262v-72z" />
    <glyph glyph-name="uni0305" unicode="&#x305;" horiz-adv-x="0" 
d="M600 800h-600v72h600v-72z" />
    <glyph glyph-name="uni0306" unicode="&#x306;" horiz-adv-x="0" 
d="M139 748v52h101v-93h120v93h101v-52l-100 -101h-121z" />
    <glyph glyph-name="uni0307" unicode="&#x307;" horiz-adv-x="0" 
d="M250 646v100h100v-100h-100z" />
    <glyph glyph-name="uni0308" unicode="&#x308;" horiz-adv-x="0" 
d="M140 630v110h110v-110h-110zM350 630v110h110v-110h-110z" />
    <glyph glyph-name="uni030A" unicode="&#x30a;" horiz-adv-x="0" 
d="M254 800l-61 -62v-90l61 -61h89l64 61v90l-64 62h-89zM277 748h45l33 -31v-47l-33 -31h-45l-32 31v47z" />
    <glyph glyph-name="uni030B" unicode="&#x30b;" horiz-adv-x="0" 
d="M188 587l129 170l-78 43l-104 -183zM330 587l146 156l-73 51l-123 -171z" />
    <glyph glyph-name="uni030C" unicode="&#x30c;" horiz-adv-x="0" 
d="M322 668l134 102l-42 46l-115 -70l-113 70l-43 -46l135 -102h44z" />
    <glyph glyph-name="uni030D" unicode="&#x30d;" horiz-adv-x="0" 
d="M260 520v220h80v-220h-80z" />
    <glyph glyph-name="uni030E" unicode="&#x30e;" horiz-adv-x="0" 
d="M180 520v220h80v-220h-80zM340 520v220h80v-220h-80z" />
    <glyph glyph-name="uni0310" unicode="&#x310;" horiz-adv-x="0" 
d="M139 748v52h81v-93h160v93h81v-52l-100 -101h-121zM250 775v100h100v-100h-100z" />
    <glyph glyph-name="uni0312" unicode="&#x312;" horiz-adv-x="0" 
d="M340 530v103h-60v54l48 50l-41 33l-57 -58v-182h110z" />
    <glyph glyph-name="uni0313" unicode="&#x313;" horiz-adv-x="0" 
d="M230 800v-133h60v-104l-48 -50l41 -63l87 88v262h-140z" />
    <glyph glyph-name="uni0314" unicode="&#x314;" horiz-adv-x="0" 
d="M370 800h-140v-262l87 -88l41 63l-48 50v104h60v133z" />
    <glyph glyph-name="uni0316" unicode="&#x316;" horiz-adv-x="0" 
d="M385 -161l33 46l-176 115l-50 -68z" />
    <glyph glyph-name="uni0317" unicode="&#x317;" horiz-adv-x="0" 
d="M215 -161l193 93l-50 68l-176 -115z" />
    <glyph glyph-name="dotbelowcomb" unicode="&#x323;" horiz-adv-x="0" 
d="M250 -160v100h100v-100h-100z" />
    <glyph glyph-name="uni0324" unicode="&#x324;" horiz-adv-x="0" 
d="M140 -150v110h110v-110h-110zM350 -150v110h110v-110h-110z" />
    <glyph glyph-name="uni0325" unicode="&#x325;" horiz-adv-x="0" 
d="M254 -40l-61 -62v-90l61 -61h89l64 61v90l-64 62h-89zM277 -92h45l33 -31v-47l-33 -31h-45l-32 31v47z" />
    <glyph glyph-name="uni0326" unicode="&#x326;" horiz-adv-x="0" 
d="M256 -261l120 175l-74 40l-101 -184z" />
    <glyph glyph-name="uni0327" unicode="&#x327;" horiz-adv-x="0" 
d="M250 -114h100l-100 114h85l75 -78v-31l-80 -67h-80v62z" />
    <glyph glyph-name="uni0328" unicode="&#x328;" horiz-adv-x="0" 
d="M380 -114h-100l100 114l-74 10l-86 -88v-31l80 -67h80v62z" />
    <glyph glyph-name="uni032D" unicode="&#x32d;" horiz-adv-x="0" 
d="M322 -40h-44l-135 -102l43 -46l113 70l115 -70l42 46z" />
    <glyph glyph-name="uni032E" unicode="&#x32e;" horiz-adv-x="0" 
d="M139 -93v53h101v-93h120v93h101v-53l-100 -100h-121z" />
    <glyph glyph-name="uni0331" unicode="&#x331;" horiz-adv-x="0" 
d="M431 -112h-262v72h262v-72z" />
    <glyph glyph-name="uni0335" unicode="&#x335;" horiz-adv-x="0" 
d="M430 264h-260v72h260v-72z" />
    <glyph glyph-name="uni0336" unicode="&#x336;" horiz-adv-x="0" 
d="M600 264h-600v72h600v-72z" />
    <glyph glyph-name="uni0337" unicode="&#x337;" horiz-adv-x="0" 
d="M378 642l-244 -719l67 -23l245 719z" />
    <glyph glyph-name="uni0338" unicode="&#x338;" horiz-adv-x="0" 
d="M424 777l68 -23l-289 -849l-67 23z" />
    <glyph glyph-name="uni0394" unicode="&#x394;" 
d="M363 700h-126l-198 -700h526zM307 634l162 -561h-334l158 561h14z" />
    <glyph glyph-name="uni03BC" unicode="&#x3bc;" 
d="M517 500l-1 -408l30 -92h-64l-23 45l-43 -45h-180l-81 47v-263h-81l1 716h81l-1 -370l38 -58h213l29 31l1 397h81z" />
    <glyph glyph-name="pi" unicode="&#x3c0;" 
d="M574 534h-548v-73h93v-461h72v461h219v-320l63 -141h72l-62 136v325h91v73z" />
    <glyph glyph-name="Wgrave" unicode="&#x1e80;" 
d="M58 700v-580l80 -120h83l87 92l62 -92h90l81 83v617h-81v-598l-27 -30h-24l-69 101v237h-81v-267l-68 -71h-25l-28 47v581h-80zM385 736l33 46l-176 115l-50 -68z" />
    <glyph glyph-name="wgrave" unicode="&#x1e81;" 
d="M502 531v-366l-90 -92h-3l-68 100v358h-81v-387l-68 -71h-5l-88 131v327h-80v-337l131 -194h71l89 91l60 -91h73l139 144v387h-80zM385 596l33 46l-176 115l-50 -68z" />
    <glyph glyph-name="Wacute" unicode="&#x1e82;" 
d="M58 700v-580l80 -120h83l87 92l62 -92h90l81 83v617h-81v-598l-27 -30h-24l-69 101v237h-81v-267l-68 -71h-25l-28 47v581h-80zM215 735l193 93l-50 68l-176 -115z" />
    <glyph glyph-name="wacute" unicode="&#x1e83;" 
d="M502 531v-366l-90 -92h-3l-68 100v358h-81v-387l-68 -71h-5l-88 131v327h-80v-337l131 -194h71l89 91l60 -91h73l139 144v387h-80zM215 595l193 93l-50 68l-176 -115z" />
    <glyph glyph-name="Wdieresis" unicode="&#x1e84;" 
d="M58 700v-580l80 -120h83l87 92l62 -92h90l81 83v617h-81v-598l-27 -30h-24l-69 101v237h-81v-267l-68 -71h-25l-28 47v581h-80zM140 739v110h110v-110h-110zM350 739v110h110v-110h-110z" />
    <glyph glyph-name="wdieresis" unicode="&#x1e85;" 
d="M502 531v-366l-90 -92h-3l-68 100v358h-81v-387l-68 -71h-5l-88 131v327h-80v-337l131 -194h71l89 91l60 -91h73l139 144v387h-80zM140 599v110h110v-110h-110zM350 599v110h110v-110h-110z" />
    <glyph glyph-name="uni1E9E" unicode="&#x1e9e;" 
d="M239 700l-161 -166v-534h81v512l111 116h162l-203 -210v-81h145l67 -98v-130l-35 -37h-121v-72h151l85 87v161l-109 162h-89l199 207v83h-283z" />
    <glyph glyph-name="Ygrave" unicode="&#x1ef2;" 
d="M440 700h81v-164l-182 -188v-348h-80v339l-181 269v92h80v-83l139 -207h2l141 147v143zM385 736l33 46l-176 115l-50 -68z" />
    <glyph glyph-name="ygrave" unicode="&#x1ef3;" 
d="M440 532v-459h-222l-59 85v374h-80v-384l100 -148h261v-27l-114 -117h-247v-73h280l162 169v580h-81zM385 587l33 46l-176 115l-50 -68z" />
    <glyph glyph-name="endash" unicode="&#x2013;" 
d="M580 264h-560v72h560v-72z" />
    <glyph glyph-name="emdash" unicode="&#x2014;" 
d="M600 264h-600v72h600v-72z" />
    <glyph glyph-name="underscoredbl" unicode="&#x2017;" 
d="M560 -122h-520v72h520v-72zM560 -234h-520v72h520v-72z" />
    <glyph glyph-name="quoteleft" unicode="&#x2018;" 
d="M370 407v133h-60v104l48 50l-41 63l-87 -88v-262h140z" />
    <glyph glyph-name="quoteright" unicode="&#x2019;" 
d="M230 700v-133h60v-104l-48 -50l41 -63l87 88v262h-140z" />
    <glyph glyph-name="quotesinglbase" unicode="&#x201a;" 
d="M230 133v-133h60v-104l-48 -50l41 -63l87 88v262h-140z" />
    <glyph glyph-name="quotedblleft" unicode="&#x201c;" 
d="M200 500v133h-60v104l48 50l-41 63l-87 -88v-262h140zM380 500v133h-60v104l48 50l-41 63l-87 -88v-262h140z" />
    <glyph glyph-name="quotedblright" unicode="&#x201d;" 
d="M400 750v-133h60v-104l-48 -50l41 -63l87 88v262h-140zM220 750v-133h60v-104l-48 -50l41 -63l87 88v262h-140z" />
    <glyph glyph-name="quotedblbase" unicode="&#x201e;" 
d="M320 133v-133h60v-104l-48 -50l41 -63l87 88v262h-140zM140 133v-133h60v-104l-48 -50l41 -63l87 88v262h-140z" />
    <glyph glyph-name="dagger" unicode="&#x2020;" 
d="M264 0v700h72v-700h-72zM471 428h-342v72h342v-72z" />
    <glyph glyph-name="daggerdbl" unicode="&#x2021;" 
d="M264 0v700h72v-700h-72zM471 428h-342v72h342v-72zM471 188h-342v72h342v-72z" />
    <glyph glyph-name="bullet" unicode="&#x2022;" 
d="M268 375l-43 -44v-63l43 -43h63l44 43v63l-44 44h-63z" />
    <glyph glyph-name="ellipsis" unicode="&#x2026;" 
d="M20 0v120h120v-120h-120zM240 0v120h120v-120h-120zM460 0v120h120v-120h-120z" />
    <glyph glyph-name="perthousand" unicode="&#x2030;" 
d="M86 700l-45 -47v-68l45 -46h68l48 46v68l-48 47h-68zM572 533l-572 -229l26 -68l574 232zM445 160l-46 -46v-68l46 -46h67l47 47v66l-47 47h-67zM194 160l-46 -46v-68l46 -46h67l47 47v66l-47 47h-67z" />
    <glyph glyph-name="guilsinglleft" unicode="&#x2039;" 
d="M403 91l-136 208l136 210l-36 22l-170 -207v-50l170 -205z" />
    <glyph glyph-name="guilsinglright" unicode="&#x203a;" 
d="M334 300l-137 -209l37 -22l169 206v49l-169 207l-37 -22z" />
    <glyph glyph-name="uni203E" unicode="&#x203e;" 
d="M600 800h-600v72h600v-72z" />
    <glyph glyph-name="fraction" unicode="&#x2044;" 
d="M46 168l537 257l-20 35l-538 -257z" />
    <glyph glyph-name="uni2070" unicode="&#x2070;" 
d="M226 720l-47 -47v-246l46 -67h150l45 48v246l-44 66h-150zM240 654l9 10h96l15 -22v-7l-120 -124v143zM240 437v3l120 125v-138l-10 -10h-96z" />
    <glyph glyph-name="uni2074" unicode="&#x2074;" 
d="M329 720l-166 -171l54 -78h130v-111h60v111h30v56h-30v193h-78zM235 543l112 115v-131h-102z" />
    <glyph glyph-name="uni2075" unicode="&#x2075;" 
d="M179 720v-121l30 -44h122l30 -42v-84l-13 -13h-169v-56h195l47 50v114l-60 88h-119l-2 5v47h171v56h-232z" />
    <glyph glyph-name="uni2076" unicode="&#x2076;" 
d="M225 722l-46 -48v-245l40 -68h138l63 65v111l-26 39h-133l-21 -21v100l9 10h131v57h-155zM240 440v35l44 45h76v-75l-26 -27h-79z" />
    <glyph glyph-name="uni2077" unicode="&#x2077;" 
d="M179 720v-56h181v-4l-141 -144v-156h60v137l141 144v79h-241z" />
    <glyph glyph-name="uni2078" unicode="&#x2078;" 
d="M260 720l-81 -84v-45l40 -59h3l-43 -41v-64l46 -67h133l62 66v57l-42 63l42 44v70l-40 60h-120zM240 602v17l44 45h65l11 -15v-42l-28 -27h-78zM240 438v34l49 52h36l35 -52v-28l-28 -27h-78z" />
    <glyph glyph-name="uni2079" unicode="&#x2079;" 
d="M210 720l-31 -31v-84l58 -86h123v-61l-36 -41h-125v-57h150l71 80v193l-58 87h-152zM240 616v48h91l29 -42v-47h-93z" />
    <glyph glyph-name="uni2080" unicode="&#x2080;" 
d="M226 360l-47 -47v-246l46 -67h150l45 48v246l-44 66h-150zM240 294l9 10h96l15 -22v-7l-120 -124v143zM240 77v3l120 125v-138l-10 -10h-96z" />
    <glyph glyph-name="uni2081" unicode="&#x2081;" 
d="M276 360l-93 -95l33 -48l54 56v-216h-91v-57h241v57h-89v303h-55z" />
    <glyph glyph-name="uni2082" unicode="&#x2082;" 
d="M228 360l-50 -50l32 -47l41 41h91l24 -37l-185 -190v-77h241v57h-181v2l181 187v50l-43 64h-151z" />
    <glyph glyph-name="uni2083" unicode="&#x2083;" 
d="M179 360v-56h164l-88 -91v-44h77l29 -43v-57l-12 -12h-170v-57h195l47 50v87l-52 78h-34l86 89v56h-242z" />
    <glyph glyph-name="uni2084" unicode="&#x2084;" 
d="M329 360l-166 -171l54 -78h130v-111h60v111h30v56h-30v193h-78zM235 183l112 115v-131h-102z" />
    <glyph glyph-name="uni2085" unicode="&#x2085;" 
d="M179 360v-121l30 -44h122l30 -42v-84l-13 -13h-169v-56h195l47 50v114l-60 88h-119l-2 5v47h171v56h-232z" />
    <glyph glyph-name="uni2086" unicode="&#x2086;" 
d="M225 361l-46 -48v-245l40 -68h138l63 65v111l-26 39h-133l-21 -21v100l9 10h131v57h-155zM240 79v35l44 45h76v-75l-26 -27h-79z" />
    <glyph glyph-name="uni2087" unicode="&#x2087;" 
d="M179 360v-56h181v-4l-141 -144v-156h60v137l141 144v79h-241z" />
    <glyph glyph-name="uni2088" unicode="&#x2088;" 
d="M260 360l-81 -84v-45l40 -59h3l-43 -41v-64l46 -67h133l62 66v57l-42 63l42 44v70l-40 60h-120zM240 242v17l44 45h65l11 -15v-42l-28 -27h-78zM240 78v34l49 52h36l35 -52v-28l-28 -27h-78z" />
    <glyph glyph-name="uni2089" unicode="&#x2089;" 
d="M210 360l-31 -31v-84l58 -86h123v-61l-36 -41h-125v-57h150l71 80v193l-58 87h-152zM240 256v48h91l29 -42v-47h-93z" />
    <glyph glyph-name="Euro" unicode="&#x20ac;" 
d="M184 595l30 33h213l54 -79l51 53l-66 98h-281l-81 -83v-165h-41v-72h41v-72h-41v-72h41v-116l80 -120h282l71 72l-43 62l-58 -62h-213l-39 58v106h236v72h-236v72h236v72h-236v143z" />
    <glyph glyph-name="uni20BA" unicode="&#x20ba;" 
d="M156 748h80v-186l162 60v-73l-162 -60v-49l162 61v-73l-162 -61v-237l39 -57h101l106 160l41 -60l-114 -173h-173l-80 118v221l-79 -29v72l79 29v48l-79 -30v73l79 30v216z" />
    <glyph glyph-name="uni20BF" unicode="&#x20bf;" 
d="M89 700v-700h362l80 49v224l-93 137h-40l123 130v92l-47 68h-385zM169 628h272v-69l-144 -149h-128v218zM169 337h231l51 -72v-193h-282v265zM180 628h80v190h-80v-190zM340 628h80v190h-80v-190zM180 -120h80v181h-80v-181zM340 -120h80v181h-80v-181z" />
    <glyph glyph-name="trademark" unicode="&#x2122;" 
d="M8 647v-54h80l29 -43v-250h60v258l-58 35h141v-293h61v231l72 -107v-2h64v69l75 78v-269h60v347h-60l-133 -137l-56 83v54h-335z" />
    <glyph glyph-name="uni2153" unicode="&#x2153;" 
d="M46 168l537 257l-20 35l-538 -257zM156 780l-93 -95l33 -48l54 56v-216h-91v-57h241v57h-89v303h-55zM259 200v-56h164l-88 -91v-44h77l29 -43v-57l-12 -12h-170v-57h195l47 50v87l-52 78h-34l86 89v56h-242z" />
    <glyph glyph-name="uni2154" unicode="&#x2154;" 
d="M46 168l537 257l-20 35l-538 -257zM59 779v-56h164l-88 -91v-44h77l29 -43v-57l-12 -12h-170v-57h195l47 50v87l-52 78h-34l86 89v56h-242zM409 200l-166 -171l54 -78h130v-111h60v111h30v56h-30v193h-78zM315 23l112 115v-131h-102z" />
    <glyph glyph-name="oneeighth" unicode="&#x215b;" 
d="M46 168l537 257l-20 35l-538 -257zM156 780l-93 -95l33 -48l54 56v-216h-91v-57h241v57h-89v303h-55zM340 196l-81 -84v-45l40 -59h3l-43 -41v-64l46 -67h133l62 66v57l-42 63l42 44v70l-40 60h-120zM320 78v17l44 45h65l11 -15v-42l-28 -27h-78zM320 -86v34l49 52h36
l35 -52v-28l-28 -27h-78z" />
    <glyph glyph-name="threeeighths" unicode="&#x215c;" 
d="M46 168l537 257l-20 35l-538 -257zM59 779v-56h164l-88 -91v-44h77l29 -43v-57l-12 -12h-170v-57h195l47 50v87l-52 78h-34l86 89v56h-242zM409 200l-166 -171l54 -78h130v-111h60v111h30v56h-30v193h-78zM315 23l112 115v-131h-102z" />
    <glyph glyph-name="fiveeighths" unicode="&#x215d;" 
d="M46 168l537 257l-20 35l-538 -257zM59 780v-121l30 -44h122l30 -42v-84l-13 -13h-169v-56h195l47 50v114l-60 88h-119l-2 5v47h171v56h-232zM340 196l-81 -84v-45l40 -59h3l-43 -41v-64l46 -67h133l62 66v57l-42 63l42 44v70l-40 60h-120zM320 78v17l44 45h65l11 -15v-42
l-28 -27h-78zM320 -86v34l49 52h36l35 -52v-28l-28 -27h-78z" />
    <glyph glyph-name="seveneighths" unicode="&#x215e;" 
d="M46 168l537 257l-20 35l-538 -257zM59 780v-56h181v-4l-141 -144v-156h60v137l141 144v79h-241zM340 196l-81 -84v-45l40 -59h3l-43 -41v-64l46 -67h133l62 66v57l-42 63l42 44v70l-40 60h-120zM320 78v17l44 45h65l11 -15v-42l-28 -27h-78zM320 -86v34l49 52h36l35 -52
v-28l-28 -27h-78z" />
    <glyph glyph-name="uni215F" unicode="&#x215f;" 
d="M46 168l537 257l-20 35l-538 -257zM156 780l-93 -95l33 -48l54 56v-216h-91v-57h241v57h-89v303h-55z" />
    <glyph glyph-name="arrowleft" unicode="&#x2190;" 
d="M288 641l50 -53l-256 -247l256 -249l-48 -53l-290 280v43zM52 304v72h528v-72h-528z" />
    <glyph glyph-name="arrowup" unicode="&#x2191;" 
d="M601 389l-53 -50l-247 256l-249 -256l-53 48l280 290h43zM264 625h72v-528h-72v528z" />
    <glyph glyph-name="arrowright" unicode="&#x2192;" 
d="M312 641l288 -279v-43l-290 -280l-48 53l256 249l-256 247zM548 304h-528v72h528v-72z" />
    <glyph glyph-name="arrowdown" unicode="&#x2193;" 
d="M-1 328l53 50l247 -256l249 256l53 -48l-280 -290h-43zM336 92h-72v528h72v-528z" />
    <glyph glyph-name="arrowboth" unicode="&#x2194;" 
d="M167 500l50 -53l-124 -120l124 -121l-48 -53l-158 152v43zM63 290v72h479v-72h-479zM436 157l-50 53l122 118l-122 119l48 53l156 -150v-43z" />
    <glyph glyph-name="arrowupdn" unicode="&#x2195;" 
d="M126 166l53 50l120 -124l121 124l53 -48l-152 -158h-43zM336 62h-72v479h72v-479zM469 435l-53 -50l-118 122l-119 -122l-53 48l150 156h43z" />
    <glyph glyph-name="uni2196" unicode="&#x2196;" 
d="M515 546l-2 -73l-356 6l5 -357l-72 -3l-7 403l31 30zM109 474l51 51l374 -373l-51 -51z" />
    <glyph glyph-name="uni2197" unicode="&#x2197;" 
d="M522 122l-73 2l6 356l-357 -5l-3 72l403 7l30 -31zM450 528l51 -51l-373 -374l-51 51z" />
    <glyph glyph-name="uni2198" unicode="&#x2198;" 
d="M98 115l2 73l356 -6l-5 357l72 3l7 -403l-31 -30zM504 187l-51 -51l-374 373l51 51z" />
    <glyph glyph-name="uni2199" unicode="&#x2199;" 
d="M91 539l73 -2l-6 -356l357 5l3 -72l-403 -7l-30 31zM163 133l-51 51l373 374l51 -51z" />
    <glyph glyph-name="universal" unicode="&#x2200;" 
d="M79 168l163 -168h279v700h-80v-337h-282v337h-80v-532zM159 188v102h282v-218h-171z" />
    <glyph glyph-name="partialdiff" unicode="&#x2202;" 
d="M168 737l-23 -66l114 -40l61 -38l93 -98l28 -101l-136 81l-168 -63l-71 -190l71 -189l169 -73l168 73l60 183v108l-57 207l-108 113l-57 43zM192 85l-50 137l50 136l106 40l165 -99v-71l-47 -143l-110 -49z" />
    <glyph glyph-name="product" unicode="&#x220f;" 
d="M531 730h-461v-57h97v-722l64 9v713h140v-722l65 9v713h95v57z" />
    <glyph glyph-name="summation" unicode="&#x2211;" 
d="M516 730h-432v-75l259 -345l-259 -310v-72h432v72h-355l239 278v69l-239 311h355v72z" />
    <glyph glyph-name="minus" unicode="&#x2212;" 
d="M481 336h-362v-72h362v72z" />
    <glyph glyph-name="radical" unicode="&#x221a;" 
d="M705 853v-72h-120l-210 -781h-133l-147 352l70 40l134 -320h13l210 781h183z" />
    <glyph glyph-name="infinity" unicode="&#x221e;" 
d="M570 448l-120 115h-68l-92 -63l-72 63h-96l-92 -63v-189l92 -88h86l102 69l72 -69h106l82 55v170zM390 500h45l80 -76v-116l-36 -23h-82l-51 52v135zM130 500h71l89 -83v-71l-91 -61h-62l-52 52v135z" />
    <glyph glyph-name="integral" unicode="&#x222b;" 
d="M537 903l-20 -72h-84l-48 -50l-91 -941l-98 -102h-133l20 72h84l48 50l91 941l98 102h133z" />
    <glyph glyph-name="approxequal" unicode="&#x2248;" 
d="M469 483l37 -63l-109 -66l-182 52l-84 -52l-37 63l109 66l184 -50zM469 246l37 -63l-109 -66l-182 52l-84 -52l-37 63l109 66l184 -50z" />
    <glyph glyph-name="notequal" unicode="&#x2260;" 
d="M454 538l-244 -507l-65 30l245 508zM114 423h372v-72h-372v72zM114 248h372v-72h-372v72z" />
    <glyph glyph-name="lessequal" unicode="&#x2264;" 
d="M215 415l279 123l-32 66l-360 -160v-59l365 -164l30 66zM102 159v-79h395v75z" />
    <glyph glyph-name="greaterequal" unicode="&#x2265;" 
d="M385 415l-282 -128l30 -66l365 164v59l-360 160l-32 -66zM498 159l-395 -4v-75h395v79z" />
    <glyph glyph-name="uni24C0" unicode="&#x24c0;" 
d="M300 0q-62 0 -116.5 23.5t-95.5 64.5t-64.5 95.5t-23.5 116.5t23.5 116.5t64.5 95.5t95.5 64.5t116.5 23.5t116.5 -23.5t95.5 -64.5t64.5 -95.5t23.5 -116.5t-23.5 -116.5t-64.5 -95.5t-95.5 -64.5t-116.5 -23.5zM300 75q63 0 114 30t81 81t30 114t-30 114t-81 81
t-114 30t-114 -30t-81 -81t-30 -114t30 -114t81 -81t114 -30zM272 301l158 -126h-90l-114 89zM430 425l-158 -124l-46 36l113 88h91zM227 425v-249l-57 44v161z" />
    <glyph glyph-name="uni2500" unicode="&#x2500;" 
d="M605 390v-80h-610v80h610z" />
    <glyph glyph-name="uni2502" unicode="&#x2502;" 
d="M340 1000v-1500h-80v1500h80z" />
    <glyph glyph-name="uni250C" unicode="&#x250c;" 
d="M605 390v-80h-265v-810h-80v890h345z" />
    <glyph glyph-name="uni2510" unicode="&#x2510;" 
d="M340 390v-890h-80v810h-265v80h345z" />
    <glyph glyph-name="uni2514" unicode="&#x2514;" 
d="M340 1000v-610h265v-80h-345v690h80z" />
    <glyph glyph-name="uni2518" unicode="&#x2518;" 
d="M340 1000v-690h-345v80h265v610h80z" />
    <glyph glyph-name="uni251C" unicode="&#x251c;" 
d="M340 1000v-610h265v-80h-265v-810h-80v1500h80z" />
    <glyph glyph-name="uni2524" unicode="&#x2524;" 
d="M340 1000v-1500h-80v810h-265v80h265v610h80z" />
    <glyph glyph-name="uni252C" unicode="&#x252c;" 
d="M605 390v-80h-265v-810h-80v810h-265v80h610z" />
    <glyph glyph-name="uni2534" unicode="&#x2534;" 
d="M340 1000v-610h265v-80h-610v80h265v610h80z" />
    <glyph glyph-name="uni253C" unicode="&#x253c;" 
d="M340 1000v-610h265v-80h-265v-810h-80v810h-265v80h265v610h80z" />
    <glyph glyph-name="lozenge" unicode="&#x25ca;" 
d="M338 691h-79l-185 -346l185 -345h79l188 346zM302 642l154 -298l-154 -295h-4l-154 295l154 298h4z" />
    <glyph glyph-name="uni25CC" unicode="&#x25cc;" 
d="M352 768q-13 1 -26 1.5t-26 0.5h-2v-35h2q12 0 24.5 -0.5t23.5 -1.5zM198 721q13 5 25.5 7.5t25.5 4.5l-6 33q-13 -1 -26.5 -3.5t-26.5 -6.5zM459 740q-23 10 -52 16l-9 -33q12 -3 24.5 -7t23.5 -9zM106 684q11 6 22 11.5t23 10.5l-13 32q-13 -5 -25.5 -11t-23.5 -14z
M554 685q-10 8 -22 16t-23 15l-18 -31q22 -12 42 -28zM27 622q9 8 18 16.5t19 17.5l-21 26q-10 -8 -20.5 -16.5t-20.5 -19.5zM632 608q-8 11 -17.5 21t-18.5 20l-25 -24q9 -10 17.5 -19t15.5 -19zM-34 542q6 11 13.5 21.5t14.5 20.5l-28 21q-8 -11 -15.5 -23t-15.5 -23z
M688 514q-6 13 -11.5 24.5t-13.5 24.5l-31 -18q7 -10 13 -21.5t10 -23.5zM-72 448q3 13 7 25t8 23l-32 14q-5 -13 -9 -26l-8 -26zM716 408q-2 14 -4 27.5t-7 26.5l-34 -9q4 -13 6.5 -25t3.5 -24zM-85 350q0 13 1 25l2 24l-35 5q-2 -13 -2.5 -26.5t-0.5 -27.5v-1h35v1z
M716 296q2 14 3 27.5t1 26.5v3h-35v-3q0 -12 -0.5 -24.5t-1.5 -25.5zM-72 250q-3 11 -5.5 23.5t-4.5 25.5l-35 -5q2 -13 5 -26.5t6 -27.5zM688 189l10 26t8 26l-33 10q-3 -13 -7.5 -24.5t-9.5 -23.5zM-33 157q-6 11 -11.5 22.5t-10.5 22.5l-32 -14q5 -13 11 -25.5t12 -23.5z
M634 94q8 12 15.5 23.5t14.5 22.5l-30 19q-7 -12 -14 -22.5t-14 -19.5zM29 77q-10 9 -18 19t-16 19l-28 -21q8 -11 17.5 -21.5t19.5 -20.5zM557 17q11 8 21 17.5t19 19.5l-25 25q-8 -10 -17.5 -18t-20.5 -16zM109 16q-12 6 -22.5 13.5t-19.5 14.5l-21 -28q11 -7 22 -15
t22 -15zM461 -37q26 11 49 23l-16 31q-12 -6 -23.5 -12t-23.5 -10zM201 -22q-11 3 -23.5 7.5t-24.5 9.5l-14 -34q14 -5 27 -9t27 -8zM355 -67q14 2 27.5 5t27.5 6l-10 34q-12 -3 -24 -5.5t-25 -4.5zM300 -70v35q-12 0 -24.5 1t-25.5 2l-4 -35q14 -1 27 -2t27 -1z" />
    <glyph glyph-name="uniEE00" unicode="&#xee00;" 
d="M600 -40h-499v790h499v73h-579v-936h579v73z" />
    <glyph glyph-name="uniEE01" unicode="&#xee01;" 
d="M-7 -40v-73h614v73h-614zM-7 823v-73h614v73h-614z" />
    <glyph glyph-name="uniEE02" unicode="&#xee02;" 
d="M0 -40v-73h579v936h-579v-73h499v-790h-499z" />
    <glyph glyph-name="uniEE03" unicode="&#xee03;" 
d="M217 644v-590h383v590h-383zM600 -40h-499v790h499v73h-579v-936h579v73z" />
    <glyph glyph-name="uniEE04" unicode="&#xee04;" 
d="M-7 644v-590h614v590h-614zM-7 -40v-73h614v73h-614zM-7 823v-73h614v73h-614z" />
    <glyph glyph-name="uniEE05" unicode="&#xee05;" 
d="M383 644h-383v-590h383v590zM0 -40v-73h579v936h-579v-73h499v-790h-499z" />
    <glyph glyph-name="zerowidthnobreakspace" unicode="&#xfeff;" horiz-adv-x="0" 
 />
    <glyph glyph-name="kda" 
d="M300 0q-62 0 -116.5 23.5t-95.5 64.5t-64.5 95.5t-23.5 116.5t23.5 116.5t64.5 95.5t95.5 64.5t116.5 23.5t116.5 -23.5t95.5 -64.5t64.5 -95.5t23.5 -116.5t-23.5 -116.5t-64.5 -95.5t-95.5 -64.5t-116.5 -23.5zM261 301l-63 -51l157 -123h125zM480 473h-126l-156 -122
l63 -50zM199 473l-79 -61v-223l79 -60v344z" />
    <glyph glyph-name="i.loclTRK" 
d="M119 550v-73h103l38 -57v-348h-181v-72h442v72h-181v358l-80 120h-141zM250 681v100h100v-100h-100z" />
    <glyph glyph-name="zero.dnom" 
d="M226 360l-47 -47v-246l46 -67h150l45 48v246l-44 66h-150zM240 294l9 10h96l15 -22v-7l-120 -124v143zM240 77v3l120 125v-138l-10 -10h-96z" />
    <glyph glyph-name="one.dnom" 
d="M276 360l-93 -95l33 -48l54 56v-216h-91v-57h241v57h-89v303h-55z" />
    <glyph glyph-name="two.dnom" 
d="M228 360l-50 -50l32 -47l41 41h91l24 -37l-185 -190v-77h241v57h-181v2l181 187v50l-43 64h-151z" />
    <glyph glyph-name="three.dnom" 
d="M179 360v-56h164l-88 -91v-44h77l29 -43v-57l-12 -12h-170v-57h195l47 50v87l-52 78h-34l86 89v56h-242z" />
    <glyph glyph-name="four.dnom" 
d="M329 360l-166 -171l54 -78h130v-111h60v111h30v56h-30v193h-78zM235 183l112 115v-131h-102z" />
    <glyph glyph-name="five.dnom" 
d="M179 360v-121l30 -44h122l30 -42v-84l-13 -13h-169v-56h195l47 50v114l-60 88h-119l-2 5v47h171v56h-232z" />
    <glyph glyph-name="six.dnom" 
d="M225 361l-46 -48v-245l40 -68h138l63 65v111l-26 39h-133l-21 -21v100l9 10h131v57h-155zM240 79v35l44 45h76v-75l-26 -27h-79z" />
    <glyph glyph-name="seven.dnom" 
d="M179 360v-56h181v-4l-141 -144v-156h60v137l141 144v79h-241z" />
    <glyph glyph-name="eight.dnom" 
d="M260 360l-81 -84v-45l40 -59h3l-43 -41v-64l46 -67h133l62 66v57l-42 63l42 44v70l-40 60h-120zM240 242v17l44 45h65l11 -15v-42l-28 -27h-78zM240 78v34l49 52h36l35 -52v-28l-28 -27h-78z" />
    <glyph glyph-name="nine.dnom" 
d="M210 360l-31 -31v-84l58 -86h123v-61l-36 -41h-125v-57h150l71 80v193l-58 87h-152zM240 256v48h91l29 -42v-47h-93z" />
    <glyph glyph-name="zero.numr" 
d="M226 720l-47 -47v-246l46 -67h150l45 48v246l-44 66h-150zM240 654l9 10h96l15 -22v-7l-120 -124v143zM240 437v3l120 125v-138l-10 -10h-96z" />
    <glyph glyph-name="one.numr" 
d="M276 720l-93 -95l33 -48l54 56v-216h-91v-57h241v57h-89v303h-55z" />
    <glyph glyph-name="two.numr" 
d="M228 720l-50 -50l32 -47l41 41h91l24 -37l-185 -190v-77h241v57h-181v2l181 187v50l-43 64h-151z" />
    <glyph glyph-name="three.numr" 
d="M179 720v-56h164l-88 -91v-44h77l29 -43v-57l-12 -12h-170v-57h195l47 50v87l-52 78h-34l86 89v56h-242z" />
    <glyph glyph-name="four.numr" 
d="M329 720l-166 -171l54 -78h130v-111h60v111h30v56h-30v193h-78zM235 543l112 115v-131h-102z" />
    <glyph glyph-name="five.numr" 
d="M179 720v-121l30 -44h122l30 -42v-84l-13 -13h-169v-56h195l47 50v114l-60 88h-119l-2 5v47h171v56h-232z" />
    <glyph glyph-name="six.numr" 
d="M225 722l-46 -48v-245l40 -68h138l63 65v111l-26 39h-133l-21 -21v100l9 10h131v57h-155zM240 440v35l44 45h76v-75l-26 -27h-79z" />
    <glyph glyph-name="seven.numr" 
d="M179 720v-56h181v-4l-141 -144v-156h60v137l141 144v79h-241z" />
    <glyph glyph-name="eight.numr" 
d="M260 720l-81 -84v-45l40 -59h3l-43 -41v-64l46 -67h133l62 66v57l-42 63l42 44v70l-40 60h-120zM240 602v17l44 45h65l11 -15v-42l-28 -27h-78zM240 438v34l49 52h36l35 -52v-28l-28 -27h-78z" />
    <glyph glyph-name="nine.numr" 
d="M210 720l-31 -31v-84l58 -86h123v-61l-36 -41h-125v-57h150l71 80v193l-58 87h-152zM240 616v48h91l29 -42v-47h-93z" />
    <glyph glyph-name="hyphen_greater.liga" 
d="M286 264h-628v72h628v-72zM54 600l288 -279v-43l-290 -280l-48 53l256 249l-256 247z" />
    <glyph glyph-name="period_period.liga" 
d="M-255 0v140h140v-140h-140zM115 0v140h140v-140h-140z" />
    <glyph glyph-name="period_period_period.liga" 
d="M-740 0v140h140v-140h-140zM0 0v140h140v-140h-140zM-370 0v140h140v-140h-140z" />
    <glyph glyph-name="colon_colon.liga" 
d="M-255 508h140v-140h-140v140zM-255 168h140v-140h-140v140zM115 508h140v-140h-140v140zM115 168h140v-140h-140v140z" />
    <glyph glyph-name="colon_colon_colon.liga" 
d="M0 508h140v-140h-140v140zM0 168h140v-140h-140v140zM-740 508h140v-140h-140v140zM-740 168h140v-140h-140v140zM-370 508h140v-140h-140v140zM-370 168h140v-140h-140v140z" />
    <glyph glyph-name="exclam_equal.liga" 
d="M-343 423h687v-72h-687v72zM-343 248h687v-72h-687v72zM124 777l68 -23l-317 -931l-67 23z" />
    <glyph glyph-name="exclam_equal_equal.liga" 
d="M-858 343h1116v-72h-1116v72zM-858 179h1116v-72h-1116v72zM-858 507h1116v-72h-1116v72zM-176 777l68 -23l-317 -931l-67 23z" />
    <glyph glyph-name="question_period.liga" 
d="M-281 700l-120 -124l39 -62l111 114h210l71 -104l-212 -219v-111h82v92l221 231l-122 183h-280zM-192 -21h104v92h-104v-92zM142 0v140h140v-140h-140z" />
    <glyph glyph-name="asterisk_asterisk.liga" 
d="M-287 540v-137l-131 42l-26 -76l131 -42l-81 -112l65 -47l81 112l81 -112l65 47l-80 112l130 42l-25 76l-131 -42v137h-79zM209 540v-137l-131 42l-26 -76l131 -42l-81 -112l65 -47l81 112l81 -112l65 47l-80 112l130 42l-25 76l-131 -42v137h-79z" />
    <glyph glyph-name="asterisk_slash.liga" 
d="M-213 540v-137l-131 42l-26 -76l131 -42l-81 -112l65 -47l81 112l81 -112l65 47l-80 112l130 42l-25 76l-131 -42v137h-79zM302 777l68 -23l-317 -931l-67 23z" />
    <glyph glyph-name="slash_asterisk.liga" 
d="M-44 777l68 -23l-317 -931l-67 23zM142 540v-137l-131 42l-26 -76l131 -42l-81 -112l65 -47l81 112l81 -112l65 47l-80 112l130 42l-25 76l-131 -42v137h-79z" />
    <glyph glyph-name="slash_equal.liga" 
d="M-352 423h352v-72h-352v72zM-392 248h392v-72h-392v72zM-246 777l68 -23l-317 -931l-67 23zM0 423h372v-72h-372v72zM0 248h372v-72h-372v72z" />
    <glyph glyph-name="slash_slash.liga" 
d="M-41 806l68 -23l-317 -931l-67 23zM289 777l68 -23l-317 -931l-67 23z" />
    <glyph glyph-name="backslash_backslash.liga" 
d="M41 806l316 -931l-67 -23l-317 931zM-289 777l316 -931l-67 -23l-317 931z" />
    <glyph glyph-name="ampersand_ampersand.liga" 
d="M-309 701l-81 -85v-62l98 -146l-179 -185v-128l64 -95h269l71 74l51 -74h269l70 75l51 -75h88l-88 127l109 111v101h-141v-72h66l-74 -78l-141 211l164 171v49l-56 81h-219l-82 -85v-62l99 -146l-179 -185l-118 177l165 171v49l-56 81h-220zM-322 581l45 48h152l19 -31
l-135 -136zM69 581l44 48h152l19 -31l-134 -136zM-390 105v96l138 145l144 -211l-60 -62h-201zM22 73l-60 89l177 184l143 -211l-59 -62h-201z" />
    <glyph glyph-name="dollar_greater.liga" 
d="M-258 677v146h-83v-146h-100l-81 -84v-167l81 -120h251l30 -42v-171l-24 -21h-338l-30 -72h211v-145h83v145h108l71 73v199l-71 106h-252l-39 58v137l29 31h607l303 -291l-257 -249l49 -53l290 280v43l-354 343h-484z" />
    <glyph glyph-name="plus_plus.liga" 
d="M-229 493v-157h-157v-72h157v-156h72v156h157v72h-157v157h-72zM157 493v-157h-157v-72h157v-156h72v156h157v72h-157v157h-72z" />
    <glyph glyph-name="plus_plus_plus.liga" 
d="M-336 493v-157h-157v-72h157v-156h72v156h157v72h-157v157h-72zM-722 493v-157h-157v-72h157v-156h72v156h157v72h-157v157h-72zM50 493v-157h-157v-72h157v-156h72v156h157v72h-157v157h-72z" />
    <glyph glyph-name="equal_equal.liga" 
d="M-372 423h372v-72h-372v72zM-372 248h372v-72h-372v72zM0 423h372v-72h-372v72zM0 248h372v-72h-372v72z" />
    <glyph glyph-name="equal_equal_equal.liga" 
d="M-858 343h1116v-72h-1116v72zM-858 179h1116v-72h-1116v72zM-858 507h1116v-72h-1116v72z" />
    <glyph glyph-name="equal_greater.liga" 
d="M-372 423h606l73 -72h-679v72zM-372 248h679l-73 -72h-606v72zM84 601l288 -279v-43l-290 -280l-48 53l256 249l-256 247z" />
    <glyph glyph-name="equal_greater_equal.liga" 
d="M-213 423h436v-72h-367zM-144 248h367v-72h-436zM-367 601l288 -279v-43l-290 -280l-48 53l256 249l-256 247zM-823 423h606l73 -72h-679v72zM-823 248h679l-73 -72h-606v72z" />
    <glyph glyph-name="equal_less_equal.liga" 
d="M-387 423l-69 -72h-367v72h436zM-456 248l69 -72h-436v72h367zM-233 601l50 -53l-256 -247l256 -249l-48 -53l-290 280v43zM223 423v-72h-679l73 72h606zM223 248v-72h-606l-73 72h679z" />
    <glyph glyph-name="equal_less_less.liga" 
d="M-849 424h467v-72h-467v72zM-849 249h467v-72h-467v72zM-220 602l50 -53l-256 -247l256 -249l-48 -53l-290 280v43zM208 602l50 -53l-256 -247l256 -249l-48 -53l-290 280v43z" />
    <glyph glyph-name="greater_equal.liga" 
d="M-251 598l288 -279v-43l-290 -280l-48 53l256 249l-256 247zM-70 423h372v-72h-372v72zM-70 248h372v-72h-372v72z" />
    <glyph glyph-name="greater_greater_equal.liga" 
d="M249 424v-72h-467v72h467zM249 249v-72h-467v72h467zM-380 602l288 -279v-43l-290 -280l-48 53l256 249l-256 247zM-808 602l288 -279v-43l-290 -280l-48 53l256 249l-256 247z" />
    <glyph glyph-name="less_hyphen.liga" 
d="M-286 264v72h628v-72h-628zM-54 600l50 -53l-256 -247l256 -249l-48 -53l-290 280v43z" />
    <glyph glyph-name="less_asterisk_greater.liga" 
d="M-641 641l50 -53l-256 -247l256 -249l-48 -53l-290 280v43zM-339 540v-137l-131 42l-26 -76l131 -42l-81 -112l65 -47l81 112l81 -112l65 47l-80 112l130 42l-25 76l-131 -42v137h-79zM31 641l288 -279v-43l-290 -280l-48 53l256 249l-256 247z" />
    <glyph glyph-name="less_dollar.liga" 
d="M372 677v146h-83v-146h-100l-81 -84v-167l81 -120h251l30 -42v-171l-24 -21h-639l-275 268l257 247l-51 52l-288 -278v-43l327 -318h512v-145h83v145h108l71 73v199l-71 106h-252l-39 58v137l29 31h302l31 73h-179z" />
    <glyph glyph-name="less_dollar_greater.liga" 
d="M-258 677v146h-83v-146h-100l-81 -84v-167l81 -120h251l30 -42v-171l-24 -21h-639l-275 268l257 247l-51 52l-288 -278v-43l327 -318h512v-145h83v145h108l71 73v199l-71 106h-252l-39 58v137l29 31h607l303 -291l-257 -249l49 -53l290 280v43l-354 343h-484z" />
    <glyph glyph-name="less_equal.liga" 
d="M372 423v-72h-679l73 72h606zM372 248v-72h-606l-73 72h679zM-84 601l50 -53l-256 -247l256 -249l-48 -53l-290 280v43z" />
    <glyph glyph-name="caron.alt" 
d="M264 943l109 -17l-78 -232l-68 16z" />
    <glyph glyph-name="idotlessogonek" 
d="M119 550v-73h103l38 -57v-348h-181v-72h442v72h-181v358l-80 120h-141zM340 -104h-100l100 114l-74 10l-86 -88v-31l80 -67h80v62z" />
    <glyph glyph-name="liga.spacer" 
 />
    <glyph glyph-name="www.liga" 
d="M150 0h71l89 91l60 -91h72l140 144v324h-81v-303l-89 -92h-3l-69 100v295h-80v-324l-69 -71h-4l-88 131v264h-81v-239l-151 -156h-3l-69 100v295h-80v-324l-69 -71h-4l-138 204v191h-80v-292l-100 -103h-3l-69 100v295h-80v-324l-69 -71h-4l-88 131v264h-81v-274
l132 -194h70l89 91l60 -91h73l148 152l103 -152h71l89 91l59 -91h73l149 154z" />
  </font>
</defs>
</svg>
